<?xml version="1.0" encoding="UTF-8" standalone="no"?>
<svg
   viewBox="0 0 252 180"
   version="1.1"
   id="svg2"
   sodipodi:docname="mottosfsf.svg"
   inkscape:version="1.3.2 (091e20ef0f, 2023-11-25)"
   inkscape:export-filename="mottosfsf.svg"
   inkscape:export-xdpi="96"
   inkscape:export-ydpi="96"
   xmlns:inkscape="http://www.inkscape.org/namespaces/inkscape"
   xmlns:sodipodi="http://sodipodi.sourceforge.net/DTD/sodipodi-0.dtd"
   xmlns="http://www.w3.org/2000/svg"
   xmlns:svg="http://www.w3.org/2000/svg">
  <sodipodi:namedview
     id="namedview2"
     pagecolor="#ffffff"
     bordercolor="#000000"
     borderopacity="0.25"
     inkscape:showpageshadow="2"
     inkscape:pageopacity="0.0"
     inkscape:pagecheckerboard="0"
     inkscape:deskcolor="#d1d1d1"
     inkscape:zoom="3.3234019"
     inkscape:cx="91.17164"
     inkscape:cy="67.400817"
     inkscape:window-width="1920"
     inkscape:window-height="1052"
     inkscape:window-x="0"
     inkscape:window-y="0"
     inkscape:window-maximized="1"
     inkscape:current-layer="svg2"
     inkscape:document-units="px" />
  <defs
     id="defs2">
    <rect
       x="2.3404255"
       y="5.3191489"
       width="242.97872"
       height="168.29787"
       id="rect4" />
    <symbol
       id="a"
       viewBox="0 0 200 50">
      <path
         d="m 3.698155,5.8529067 c 0,0.7115688 -0.5612376,1.0623428 -1.3128951,1.0623428 -0.8418565,0 -1.4532046,-0.561238 -1.5534256,-1.3630058 l -0.801768,0.050111 c 0.080177,1.3630048 1.0924089,2.0645528 2.3251273,2.0645528 1.2627846,0 2.2449505,-0.781723 2.2449505,-1.984376 0,-1.2527626 -1.1224753,-1.693735 -2.0645527,-2.094619 C 1.7438454,3.2471606 1.1525415,2.9565197 1.1525415,2.1747958 c 0,-0.7115691 0.5411934,-1.0723647 1.2126742,-1.0723647 0.8117901,0 1.2427404,0.4409724 1.2427404,1.2928509 L 4.4097242,2.345172 C 4.5199673,1.0623432 3.6179782,0.350774 2.3652157,0.350774 c -1.2026521,0 -2.1146632,0.8218123 -2.1146632,1.9643317 0,1.2327184 0.9721437,1.6636687 1.9142212,2.0545306 C 2.9364754,4.690343 3.698155,4.9809839 3.698155,5.8529067 Z M 6.6246169,2.5556356 5.772738,2.9064092 v 3.6480443 c 0,1.00221 0.7817239,1.162564 1.5033149,0.962122 v -0.601326 c -0.471039,0 -0.651436,-0.160354 -0.651436,-0.661459 z M 5.6224064,0.9320554 c 0,0.3307293 0.2405305,0.5712597 0.5612375,0.5712597 0.340752,0 0.591304,-0.2405304 0.591304,-0.5712597 0,-0.3307293 -0.250552,-0.5812819 -0.591304,-0.5812819 -0.320707,0 -0.5612375,0.2505526 -0.5612375,0.5812819 z M 9.3205559,6.1335255 V 3.2571827 H 10.663518 V 2.6558566 H 9.3205559 v -1.403094 l -0.851878,0.3507735 v 1.0523205 h -0.701547 v 0.6013261 h 0.701547 v 2.9164308 c 0,1.102431 0.681503,1.493293 1.393072,1.493293 0.2505521,0 0.6815031,-0.04009 0.9520991,-0.150331 l -0.04009,-0.601326 c 0,0 -0.300663,0.05011 -0.62137,0.05011 -0.4309511,0 -0.8318351,-0.100221 -0.8318351,-0.831834 z M 14.211343,5.0711829 c 0.741636,-0.1603537 0.881945,-0.2505526 0.881945,-0.9120112 0,-0.9921879 -0.641414,-1.6536466 -1.703757,-1.6536466 -1.212674,0 -1.864111,0.8318344 -1.914221,1.8641107 -0.02004,0.4710387 -0.02004,0.7817239 0,1.493293 0.03007,1.0723647 0.731613,1.8039777 1.914221,1.8039777 1.112453,0 1.733824,-0.761679 1.693735,-1.553425 l -0.701547,-0.05011 c -0.07015,0.501105 -0.370818,0.901989 -0.992188,0.901989 -0.641414,0 -1.072365,-0.43095 -1.072365,-1.2527622 V 5.3918901 c 0,0 1.14252,-0.1603536 1.894177,-0.3207072 z M 12.317166,4.5299894 c 0,-0.7717017 0.320708,-1.3229172 1.072365,-1.3229172 0.541194,0 0.851879,0.3607956 0.851879,0.9320553 0,0.2705967 -0.07015,0.3607956 -0.511127,0.4610166 -0.691525,0.1503315 -1.413117,0.2405304 -1.413117,0.2405304 z m 7.105679,2.9865861 h 0.901989 V 4.5099452 H 22.88047 V 3.7582877 H 20.324834 V 1.2527626 h 2.846277 V 0.501105 h -3.748266 z m 8.248184,-0.601326 c -0.43095,0 -0.651437,-0.05011 -0.651437,-0.551216 V 4.2293264 c 0,-1.1625636 -0.601326,-1.7238013 -1.613558,-1.7238013 -0.972143,0 -1.814,0.6113482 -1.703757,1.6135582 l 0.751658,-0.060133 c 0,-0.5211492 0.330729,-0.8518785 0.901989,-0.8518785 0.62137,0 0.81179,0.3908619 0.81179,1.0723647 v 0.4810608 c 0.02004,-0.010022 -1.00221,0.2204862 -1.62358,0.4008841 -0.751658,0.2204862 -1.00221,0.4409724 -1.00221,1.1124531 0,0.861901 0.62137,1.393072 1.373027,1.393072 0.661459,0 1.062343,-0.300663 1.33294,-0.751657 h 0.03007 c 0.160354,0.891967 1.182608,0.721591 1.393072,0.601326 z M 24.884885,5.5923321 c 0.43095,-0.1403094 1.282829,-0.3407514 1.282829,-0.3407514 v 0.6414144 c 0,0.6213704 -0.370818,1.1224754 -0.9521,1.1224754 -0.48106,0 -0.821812,-0.310685 -0.821812,-0.841857 0,-0.3006626 0.100221,-0.4509941 0.491083,-0.5812814 z m 5.562258,2.0745744 c 1.122475,0 1.713779,-0.761679 1.67369,-1.553425 l -0.701547,-0.05011 c -0.07015,0.501105 -0.370817,0.901989 -0.972143,0.901989 -0.631393,0 -1.032277,-0.370817 -1.062343,-1.2026517 -0.02004,-0.5311713 -0.02004,-0.8318344 0,-1.4532046 0.03007,-0.7316133 0.440972,-1.102431 1.022254,-1.102431 0.501105,0 0.932056,0.2505525 0.962122,0.8518785 l 0.751657,-0.05011 c 0.03007,-0.901989 -0.631392,-1.5033151 -1.713779,-1.5033151 -1.05232,0 -1.834044,0.6213703 -1.874133,1.8039781 -0.02004,0.5812818 -0.02004,0.9520996 0,1.6035361 0.03007,1.1725857 0.841857,1.7538667 1.914222,1.7538657 z m 3.527788,-5.1112709 -0.851878,0.3507736 v 3.6480443 c 0,1.00221 0.781724,1.162564 1.503315,0.962122 v -0.601326 c -0.471039,0 -0.651437,-0.160354 -0.651437,-0.661459 z m -1.00221,-1.6235802 c 0,0.3307293 0.240531,0.5712597 0.561238,0.5712597 0.340751,0 0.591304,-0.2405304 0.591304,-0.5712597 0,-0.3307293 -0.250553,-0.5812819 -0.591304,-0.5812819 -0.320707,0 -0.561238,0.2505526 -0.561238,0.5812819 z m 4.149142,5.9831941 c -0.471039,0 -0.651436,-0.150332 -0.651436,-0.651437 V 0 l -0.851879,0.3507735 v 6.213702 c 0,1.00221 0.831834,1.152542 1.503315,0.9521 z m 3.648044,-1.8440666 c 0.741635,-0.1603537 0.881944,-0.2505526 0.881944,-0.9120112 0,-0.9921879 -0.641414,-1.6536466 -1.703757,-1.6536466 -1.212674,0 -1.86411,0.8318344 -1.914221,1.8641107 -0.02004,0.4710387 -0.02004,0.7817239 0,1.493293 0.03007,1.0723647 0.731614,1.8039777 1.914221,1.8039777 1.112454,0 1.733824,-0.761679 1.693735,-1.553425 l -0.701547,-0.05011 c -0.07015,0.501105 -0.370817,0.901989 -0.992188,0.901989 -0.641414,0 -1.072364,-0.43095 -1.072364,-1.2527622 V 5.3918901 c 0,0 1.142519,-0.1603536 1.894177,-0.3207072 z M 38.87573,4.5299894 c 0,-0.7717017 0.320707,-1.3229172 1.072364,-1.3229172 0.541194,0 0.851879,0.3607956 0.851879,0.9320553 0,0.2705967 -0.07015,0.3607956 -0.511127,0.4610166 -0.691525,0.1503315 -1.413116,0.2405304 -1.413116,0.2405304 z"
         id="path1" />
      <path
         d="m 3.3072931,16.556509 c 0.100221,-0.801767 -0.4910829,-1.523358 -1.5233593,-1.523358 -0.9320553,0 -1.6536465,0.581282 -1.6536465,1.463226 0,0.881945 0.6614586,1.232718 1.3930719,1.483271 0.7015471,0.24053 1.0723648,0.440972 1.0723648,0.8619 0,0.430951 -0.3407514,0.651437 -0.8117902,0.651437 -0.6113481,0 -0.9721437,-0.410906 -1.0322763,-0.901989 L 0,18.641106 c 0.010022,0.861901 0.701547,1.553426 1.7839338,1.553426 1.0222543,0 1.6636687,-0.631391 1.6636687,-1.423138 0,-0.9521 -0.8117901,-1.242741 -1.5333813,-1.52336 -0.5011051,-0.19042 -0.9320554,-0.380839 -0.9320554,-0.841856 0,-0.410905 0.3407514,-0.67148 0.7717017,-0.67148 0.5011051,0 0.8017681,0.330729 0.8017681,0.871922 z m 2.1347153,-1.473247 -0.8518786,0.350773 v 3.648044 c 0,1.00221 0.7817239,1.162563 1.5033151,0.962121 v -0.601326 c -0.4710387,0 -0.6514365,-0.160353 -0.6514365,-0.661458 z M 4.4397983,13.45968 c 0,0.33073 0.2405304,0.57126 0.5612376,0.57126 0.3407515,0 0.591304,-0.24053 0.591304,-0.57126 0,-0.330729 -0.2505525,-0.581281 -0.591304,-0.581281 -0.3207072,0 -0.5612376,0.250552 -0.5612376,0.581281 z m 6.5544577,1.002211 c 0,-0.881944 0.250553,-1.182607 0.751658,-1.182607 0.410906,0 0.661458,0.170375 0.661458,0.170375 l 0.270597,-0.57126 c -0.180398,-0.160354 -0.511127,-0.350774 -0.982166,-0.350774 -0.8619,0 -1.553425,0.581282 -1.553425,1.884155 v 0.771702 H 9.4408309 v 0.601326 H 10.142378 V 20.0442 h 0.851878 v -4.259392 h 1.202652 v -0.601326 h -1.202652 z m 5.903026,4.980983 c -0.43095,0 -0.651436,-0.05011 -0.651436,-0.551215 v -2.134708 c 0,-1.162562 -0.601326,-1.7238 -1.613558,-1.7238 -0.972144,0 -1.814,0.611347 -1.703757,1.613557 l 0.751657,-0.06013 c 0,-0.521149 0.33073,-0.851878 0.901989,-0.851878 0.621371,0 0.81179,0.390861 0.81179,1.072364 v 0.481061 c 0.02004,-0.01002 -1.00221,0.220486 -1.62358,0.400884 -0.751657,0.220487 -1.00221,0.440972 -1.00221,1.112453 0,0.861901 0.62137,1.393072 1.373028,1.393072 0.661458,0 1.062343,-0.300663 1.332939,-0.751658 h 0.03007 c 0.160353,0.891968 1.182607,0.721593 1.393071,0.601326 z m -2.786143,-1.322917 c 0.43095,-0.140309 1.282828,-0.340751 1.282828,-0.340751 v 0.641414 c 0,0.62137 -0.370817,1.122475 -0.952099,1.122475 -0.481061,0 -0.821812,-0.310685 -0.821812,-0.841856 0,-0.300663 0.100221,-0.450995 0.491083,-0.581282 z m 5.562257,2.074575 c 1.122475,0 1.713779,-0.76168 1.673691,-1.553426 l -0.701547,-0.05011 c -0.07015,0.501105 -0.370818,0.901989 -0.972144,0.901989 -0.631392,0 -1.032276,-0.370818 -1.062343,-1.202652 -0.02004,-0.531171 -0.02004,-0.831834 0,-1.453205 0.03007,-0.731613 0.440973,-1.10243 1.022255,-1.10243 0.501105,0 0.932055,0.250553 0.962121,0.851878 l 0.751658,-0.05011 c 0.03007,-0.901988 -0.631392,-1.503314 -1.713779,-1.503314 -1.052321,0 -1.834045,0.62137 -1.874133,1.803977 -0.02004,0.581283 -0.02004,0.9521 0,1.603537 0.03007,1.172585 0.841856,1.753868 1.914221,1.753868 z m 3.527787,-5.11127 -0.851879,0.350773 v 3.648044 c 0,1.00221 0.781724,1.162563 1.503315,0.962121 v -0.601326 c -0.471038,0 -0.651436,-0.160353 -0.651436,-0.661458 z m -1.00221,-1.623582 c 0,0.33073 0.24053,0.57126 0.561237,0.57126 0.340752,0 0.591304,-0.24053 0.591304,-0.57126 0,-0.330729 -0.250552,-0.581281 -0.591304,-0.581281 -0.320707,0 -0.561237,0.250552 -0.561237,0.581281 z m 4.149146,5.983194 c -0.471039,0 -0.651437,-0.150331 -0.651437,-0.651436 V 12.527626 L 24.844804,12.8784 v 6.213701 c 0,1.00221 0.831834,1.152541 1.503315,0.952099 z m 3.648041,-1.844066 c 0.741636,-0.160354 0.881945,-0.250553 0.881945,-0.912011 0,-0.992187 -0.641414,-1.653646 -1.703757,-1.653646 -1.212674,0 -1.864111,0.831835 -1.914221,1.86411 -0.02004,0.471039 -0.02004,0.781724 0,1.493293 0.03007,1.072366 0.731613,1.803978 1.914221,1.803978 1.112453,0 1.733823,-0.761679 1.693735,-1.553426 l -0.701547,-0.05011 c -0.07015,0.501105 -0.370818,0.901989 -0.992188,0.901989 -0.641415,0 -1.072365,-0.43095 -1.072365,-1.252763 v -0.320707 c 0,0 1.14252,-0.160353 1.894177,-0.320707 z m -1.894177,-0.541194 c 0,-0.771701 0.320707,-1.322917 1.072365,-1.322917 0.541193,0 0.851878,0.360796 0.851878,0.932056 0,0.270596 -0.07015,0.360795 -0.511127,0.461016 -0.691525,0.150332 -1.413116,0.240531 -1.413116,0.240531 z"
         id="path2" />
    </symbol>
  </defs>
  <path
     d="m 18.057164,30.667671 c 0,2.650665 -2.090665,3.95733 -4.890663,3.95733 -3.135997,0 -5.4133285,-2.090665 -5.7866615,-5.077329 l -2.9866642,0.186667 c 0.2986664,5.077329 4.0693299,7.69066 8.6613257,7.69066 4.703996,0 8.36266,-2.911998 8.36266,-7.391994 0,-4.666663 -4.18133,-6.309328 -7.69066,-7.80266 -2.949331,-1.269332 -5.1519959,-2.351998 -5.1519959,-5.263996 0,-2.650664 2.0159979,-3.994663 4.5173299,-3.994663 3.023997,0 4.629329,1.642665 4.629329,4.815996 l 2.986664,-0.186666 c 0.410666,-4.778663 -2.949331,-7.429327 -7.615993,-7.429327 -4.4799966,0 -7.877327,3.06133 -7.877327,7.317327 0,4.591996 3.6213302,6.197328 7.130661,7.653326 2.874664,1.194666 5.711995,2.277332 5.711995,5.525329 z m 10.901355,-12.282656 -3.17333,1.306665 v 13.589322 c 0,3.73333 2.911997,4.330663 5.599995,3.583997 v -2.239998 c -1.754665,0 -2.426665,-0.597333 -2.426665,-2.463998 z m -3.73333,-6.047995 c 0,1.231999 0.895999,2.127998 2.090665,2.127998 1.269332,0 2.202665,-0.895999 2.202665,-2.127998 0,-1.231999 -0.933333,-2.165331 -2.202665,-2.165331 -1.194666,0 -2.090665,0.933332 -2.090665,2.165331 z M 39.001158,31.713004 V 20.998346 h 5.002662 v -2.239998 h -5.002662 v -5.226662 l -3.173331,1.306665 v 3.919997 h -2.613331 v 2.239998 h 2.613331 v 10.863991 c 0,4.106663 2.538665,5.562662 5.189329,5.562662 0.933333,0 2.538665,-0.149334 3.546664,-0.56 l -0.149333,-2.239998 c 0,0 -1.119999,0.186667 -2.314665,0.186667 -1.605332,0 -3.098664,-0.373333 -3.098664,-3.098664 z m 18.218659,-3.95733 c 2.762664,-0.597333 3.285331,-0.933333 3.285331,-3.397331 0,-3.695997 -2.389332,-6.159995 -6.346662,-6.159995 -4.517329,0 -6.943994,3.098664 -7.13066,6.943994 -0.07467,1.754666 -0.07467,2.911998 0,5.562662 0.112,3.994664 2.725331,6.719995 7.13066,6.719995 4.143997,0 6.458662,-2.837331 6.309328,-5.786662 L 57.854483,31.45167 c -0.261333,1.866666 -1.381332,3.359998 -3.695997,3.359998 -2.389331,0 -3.994663,-1.605332 -3.994663,-4.666663 v -1.194666 c 0,0 4.255996,-0.597333 7.055994,-1.194665 z m -7.055994,-2.015999 c 0,-2.874664 1.194666,-4.927995 3.994663,-4.927995 2.015999,0 3.173331,1.343998 3.173331,3.471997 0,1.007999 -0.261333,1.343998 -1.903998,1.717331 -2.575998,0.56 -5.263996,0.896 -5.263996,0.896 z m 26.469352,11.125324 h 3.359997 v -11.19999 h 9.519992 V 22.865011 H 79.993172 V 13.531686 H 90.59583 V 10.731688 H 76.633175 Z m 30.725285,-2.239998 c -1.60534,0 -2.42667,-0.186666 -2.42667,-2.053331 v -7.951994 c 0,-4.330663 -2.24,-6.421328 -6.010659,-6.421328 -3.621331,0 -6.757328,2.277332 -6.346662,6.010662 l 2.799998,-0.224 c 0,-1.941332 1.231999,-3.17333 3.359997,-3.17333 2.314666,0 3.023996,1.455998 3.023996,3.994663 v 1.791998 c 0.0747,-0.03733 -3.733329,0.821333 -6.047993,1.493332 -2.799998,0.821333 -3.733331,1.642666 -3.733331,4.143997 0,3.210664 2.314665,5.189329 5.114663,5.189329 2.463998,0 3.957331,-1.119999 4.965331,-2.799998 h 0.112 c 0.59733,3.322664 4.40533,2.687998 5.18933,2.239998 z M 96.979799,29.697005 c 1.605332,-0.522666 4.778661,-1.269332 4.778661,-1.269332 v 2.389331 c 0,2.314665 -1.38133,4.18133 -3.546662,4.18133 -1.791999,0 -3.061331,-1.157332 -3.061331,-3.135997 0,-1.119999 0.373333,-1.679999 1.829332,-2.165332 z m 20.719951,7.727994 c 4.18133,0 6.38399,-2.837331 6.23466,-5.786662 l -2.61333,-0.186667 c -0.26133,1.866666 -1.38133,3.359998 -3.62133,3.359998 -2.352,0 -3.84533,-1.381333 -3.95733,-4.479997 -0.0747,-1.978665 -0.0747,-3.098664 0,-5.413328 0.112,-2.725331 1.64267,-4.106663 3.808,-4.106663 1.86666,0 3.47199,0.933332 3.58399,3.17333 l 2.8,-0.186666 c 0.112,-3.359997 -2.352,-5.599996 -6.38399,-5.599996 -3.92,0 -6.832,2.314665 -6.98133,6.719995 -0.0747,2.165331 -0.0747,3.546663 0,5.973328 0.112,4.367996 3.136,6.533328 7.13066,6.533328 z m 13.14135,-19.039984 -3.17333,1.306665 v 13.589322 c 0,3.73333 2.912,4.330663 5.6,3.583997 v -2.239998 c -1.75467,0 -2.42667,-0.597333 -2.42667,-2.463998 z m -3.73333,-6.047995 c 0,1.231999 0.896,2.127998 2.09067,2.127998 1.26933,0 2.20266,-0.895999 2.20266,-2.127998 0,-1.231999 -0.93333,-2.165331 -2.20266,-2.165331 -1.19467,0 -2.09067,0.933332 -2.09067,2.165331 z m 15.45596,22.287981 c -1.75466,0 -2.42666,-0.559999 -2.42666,-2.426665 V 8.865023 l -3.17333,1.306666 v 23.146647 c 0,3.73333 3.09866,4.293329 5.59999,3.546663 z m 13.58932,-6.869327 c 2.76266,-0.597333 3.28533,-0.933333 3.28533,-3.397331 0,-3.695997 -2.38933,-6.159995 -6.34666,-6.159995 -4.51733,0 -6.944,3.098664 -7.13066,6.943994 -0.0747,1.754666 -0.0747,2.911998 0,5.562662 0.112,3.994664 2.72533,6.719995 7.13066,6.719995 4.14399,0 6.45866,-2.837331 6.30933,-5.786662 l -2.61334,-0.186667 c -0.26133,1.866666 -1.38133,3.359998 -3.69599,3.359998 -2.38933,0 -3.99467,-1.605332 -3.99467,-4.666663 v -1.194666 c 0,0 4.256,-0.597333 7.056,-1.194665 z m -7.056,-2.015999 c 0,-2.874664 1.19467,-4.927995 3.99467,-4.927995 2.016,0 3.17333,1.343998 3.17333,3.471997 0,1.007999 -0.26133,1.343998 -1.904,1.717331 -2.576,0.56 -5.264,0.896 -5.264,0.896 z M 16.601165,70.539636 c 0.373333,-2.986664 -1.829332,-5.674662 -5.674662,-5.674662 -3.4719969,0 -6.1599946,2.165332 -6.1599946,5.450662 0,3.285331 2.4639979,4.591996 5.1893289,5.525329 2.6133307,0.895999 3.9946637,1.642665 3.9946637,3.210664 0,1.605332 -1.269333,2.426665 -3.023998,2.426665 -2.2773313,0 -3.6213301,-1.530666 -3.84533,-3.359998 l -2.7999976,0.186667 c 0.037333,3.210664 2.6133311,5.786662 6.6453276,5.786662 3.807997,0 6.197328,-2.351998 6.197328,-5.301329 0,-3.546664 -3.023997,-4.62933 -5.711995,-5.674662 -1.8666651,-0.709333 -3.471997,-1.418665 -3.471997,-3.135997 0,-1.530666 1.2693322,-2.501332 2.874664,-2.501332 1.866665,0 2.986664,1.231999 2.986664,3.247998 z m 7.952024,-5.487995 -3.173331,1.306665 v 13.589322 c 0,3.73333 2.911997,4.330663 5.599995,3.583997 v -2.239998 c -1.754665,0 -2.426664,-0.597333 -2.426664,-2.463998 z m -3.733331,-6.047995 c 0,1.231999 0.896,2.127998 2.090665,2.127998 1.269333,0 2.202665,-0.895999 2.202665,-2.127998 0,-1.231999 -0.933332,-2.165331 -2.202665,-2.165331 -1.194665,0 -2.090665,0.933332 -2.090665,2.165331 z m 24.415995,3.73333 c 0,-3.28533 0.933333,-4.405329 2.799998,-4.405329 1.530665,0 2.463998,0.634666 2.463998,0.634666 l 1.007999,-2.127998 c -0.671999,-0.597333 -1.903998,-1.306666 -3.658663,-1.306666 -3.210664,0 -5.786662,2.165331 -5.786662,7.018661 v 2.874664 h -2.613331 v 2.239998 h 2.613331 v 15.866653 h 3.17333 V 67.664972 h 4.479997 v -2.239998 h -4.479997 z m 21.989349,18.554651 c -1.605332,0 -2.426665,-0.186666 -2.426665,-2.053332 v -7.951993 c 0,-4.330663 -2.239998,-6.421328 -6.010661,-6.421328 -3.621331,0 -6.757328,2.277332 -6.346662,6.010662 l 2.799998,-0.224 c 0,-1.941332 1.231999,-3.173331 3.359997,-3.173331 2.314665,0 3.023997,1.455999 3.023997,3.994664 v 1.791998 c 0.07467,-0.03733 -3.73333,0.821333 -6.047994,1.493332 -2.799998,0.821333 -3.733331,1.642666 -3.733331,4.143997 0,3.210664 2.314665,5.189329 5.114663,5.189329 2.463998,0 3.95733,-1.119999 4.965329,-2.799998 h 0.112 c 0.597333,3.322664 4.405329,2.687998 5.189329,2.239998 z M 56.846544,76.363631 c 1.605332,-0.522666 4.778662,-1.269332 4.778662,-1.269332 v 2.389331 c 0,2.314665 -1.381332,4.18133 -3.546663,4.18133 -1.791999,0 -3.061331,-1.157332 -3.061331,-3.135997 0,-1.119999 0.373333,-1.679999 1.829332,-2.165332 z m 20.719951,7.727994 c 4.18133,0 6.383995,-2.837331 6.234661,-5.786662 l -2.613331,-0.186667 c -0.261333,1.866666 -1.381332,3.359998 -3.62133,3.359998 -2.351998,0 -3.84533,-1.381333 -3.95733,-4.479997 -0.07467,-1.978665 -0.07467,-3.098664 0,-5.413328 0.112,-2.725331 1.642665,-4.106664 3.807997,-4.106664 1.866665,0 3.471997,0.933333 3.583997,3.173331 l 2.799997,-0.186666 c 0.112,-3.359998 -2.351998,-5.599996 -6.383994,-5.599996 -3.919997,0 -6.831994,2.314665 -6.981328,6.719995 -0.07467,2.165331 -0.07467,3.546663 0,5.973328 0.112,4.367996 3.135998,6.533328 7.130661,6.533328 z M 90.70785,65.051641 87.534519,66.358306 v 13.589322 c 0,3.73333 2.911998,4.330663 5.599995,3.583997 v -2.239998 c -1.754665,0 -2.426664,-0.597333 -2.426664,-2.463998 z m -3.73333,-6.047995 c 0,1.231999 0.895999,2.127998 2.090664,2.127998 1.269333,0 2.202665,-0.895999 2.202665,-2.127998 0,-1.231999 -0.933332,-2.165331 -2.202665,-2.165331 -1.194665,0 -2.090664,0.933332 -2.090664,2.165331 z m 15.45596,22.287981 c -1.75467,0 -2.42667,-0.559999 -2.42667,-2.426665 V 55.531649 l -3.173326,1.306666 v 23.146647 c 0,3.73333 3.098664,4.293329 5.599996,3.546663 z M 116.01979,74.4223 c 2.76267,-0.597333 3.28533,-0.933333 3.28533,-3.397331 0,-3.695997 -2.38933,-6.159995 -6.34666,-6.159995 -4.51733,0 -6.94399,3.098664 -7.13066,6.943994 -0.0747,1.754666 -0.0747,2.911998 0,5.562662 0.112,3.994664 2.72533,6.719995 7.13066,6.719995 4.144,0 6.45866,-2.837331 6.30933,-5.786662 l -2.61333,-0.186667 c -0.26133,1.866666 -1.38133,3.359998 -3.696,3.359998 -2.38933,0 -3.99466,-1.605332 -3.99466,-4.666663 v -1.194666 c 0,0 4.256,-0.597333 7.05599,-1.194665 z m -7.05599,-2.015999 c 0,-2.874664 1.19467,-4.927996 3.99466,-4.927996 2.016,0 3.17333,1.343999 3.17333,3.471998 0,1.007999 -0.26133,1.343998 -1.904,1.717331 -2.57599,0.56 -5.26399,0.896 -5.26399,0.896 z"
     id="text4"
     style="font-size:37.3333px;font-family:'Fengardo Neue';-inkscape-font-specification:'Fengardo Neue';white-space:pre;stroke-width:6"
     aria-label="Site Facile&#10;si facile "
     inkscape:label="text4" />
</svg>
