<?xml version="1.0" encoding="UTF-8" standalone="no"?>
<svg
   viewBox="0 0 252 180"
   version="1.1"
   id="svg2"
   sodipodi:docname="motto.inkscape.svg"
   inkscape:version="1.3.2 (091e20ef0f, 2023-11-25)"
   inkscape:export-filename="motto.svg"
   inkscape:export-xdpi="96"
   inkscape:export-ydpi="96"
   xmlns:inkscape="http://www.inkscape.org/namespaces/inkscape"
   xmlns:sodipodi="http://sodipodi.sourceforge.net/DTD/sodipodi-0.dtd"
   xmlns="http://www.w3.org/2000/svg"
   xmlns:svg="http://www.w3.org/2000/svg">
  <sodipodi:namedview
     id="namedview2"
     pagecolor="#787878"
     bordercolor="#000000"
     borderopacity="0.25"
     inkscape:showpageshadow="2"
     inkscape:pageopacity="0.0"
     inkscape:pagecheckerboard="0"
     inkscape:deskcolor="#d1d1d1"
     inkscape:zoom="4.4555556"
     inkscape:cx="126.02244"
     inkscape:cy="90"
     inkscape:window-width="1499"
     inkscape:window-height="1080"
     inkscape:window-x="0"
     inkscape:window-y="0"
     inkscape:window-maximized="0"
     inkscape:current-layer="svg2" />
  <defs
     id="defs1">
    <rect
       x="112.66833"
       y="104.58853"
       width="73.167082"
       height="51.845387"
       id="rect4" />
    <symbol
       id="a"
       viewBox="0 0 252 180">
      <path
         d="m 18.057164,30.667671 c 0,2.650665 -2.090665,3.95733 -4.890663,3.95733 -3.135997,0 -5.4133285,-2.090665 -5.7866615,-5.077329 l -2.9866642,0.186667 c 0.2986664,5.077329 4.0693299,7.69066 8.6613257,7.69066 4.703996,0 8.36266,-2.911998 8.36266,-7.391994 0,-4.666663 -4.18133,-6.309328 -7.69066,-7.80266 -2.949331,-1.269332 -5.1519959,-2.351998 -5.1519959,-5.263996 0,-2.650664 2.0159979,-3.994663 4.5173299,-3.994663 3.023997,0 4.629329,1.642665 4.629329,4.815996 l 2.986664,-0.186666 c 0.410666,-4.778663 -2.949331,-7.429327 -7.615993,-7.429327 -4.4799966,0 -7.877327,3.06133 -7.877327,7.317327 0,4.591996 3.6213302,6.197328 7.130661,7.653326 2.874664,1.194666 5.711995,2.277332 5.711995,5.525329 z m 10.901355,-12.282656 -3.17333,1.306665 v 13.589322 c 0,3.73333 2.911997,4.330663 5.599995,3.583997 v -2.239998 c -1.754665,0 -2.426665,-0.597333 -2.426665,-2.463998 z m -3.73333,-6.047995 c 0,1.231999 0.895999,2.127998 2.090665,2.127998 1.269332,0 2.202665,-0.895999 2.202665,-2.127998 0,-1.231999 -0.933333,-2.165331 -2.202665,-2.165331 -1.194666,0 -2.090665,0.933332 -2.090665,2.165331 z M 39.001158,31.713004 V 20.998346 h 5.002662 v -2.239998 h -5.002662 v -5.226662 l -3.173331,1.306665 v 3.919997 h -2.613331 v 2.239998 h 2.613331 v 10.863991 c 0,4.106663 2.538665,5.562662 5.189329,5.562662 0.933333,0 2.538665,-0.149334 3.546664,-0.56 l -0.149333,-2.239998 c 0,0 -1.119999,0.186667 -2.314665,0.186667 -1.605332,0 -3.098664,-0.373333 -3.098664,-3.098664 z m 18.218659,-3.95733 c 2.762664,-0.597333 3.285331,-0.933333 3.285331,-3.397331 0,-3.695997 -2.389332,-6.159995 -6.346662,-6.159995 -4.517329,0 -6.943994,3.098664 -7.13066,6.943994 -0.07467,1.754666 -0.07467,2.911998 0,5.562662 0.112,3.994664 2.725331,6.719995 7.13066,6.719995 4.143997,0 6.458662,-2.837331 6.309328,-5.786662 L 57.854483,31.45167 c -0.261333,1.866666 -1.381332,3.359998 -3.695997,3.359998 -2.389331,0 -3.994663,-1.605332 -3.994663,-4.666663 v -1.194666 c 0,0 4.255996,-0.597333 7.055994,-1.194665 z m -7.055994,-2.015999 c 0,-2.874664 1.194666,-4.927995 3.994663,-4.927995 2.015999,0 3.173331,1.343998 3.173331,3.471997 0,1.007999 -0.261333,1.343998 -1.903998,1.717331 -2.575998,0.56 -5.263996,0.896 -5.263996,0.896 z m 26.469352,11.125324 h 3.359997 v -11.19999 h 9.519992 V 22.865011 H 79.993172 V 13.531686 H 90.59583 V 10.731688 H 76.633175 Z m 30.725285,-2.239998 c -1.60534,0 -2.42667,-0.186666 -2.42667,-2.053331 v -7.951994 c 0,-4.330663 -2.24,-6.421328 -6.010659,-6.421328 -3.621331,0 -6.757328,2.277332 -6.346662,6.010662 l 2.799998,-0.224 c 0,-1.941332 1.231999,-3.17333 3.359997,-3.17333 2.314666,0 3.023996,1.455998 3.023996,3.994663 v 1.791998 c 0.0747,-0.03733 -3.733329,0.821333 -6.047993,1.493332 -2.799998,0.821333 -3.733331,1.642666 -3.733331,4.143997 0,3.210664 2.314665,5.189329 5.114663,5.189329 2.463998,0 3.957331,-1.119999 4.965331,-2.799998 h 0.112 c 0.59733,3.322664 4.40533,2.687998 5.18933,2.239998 z M 96.979799,29.697005 c 1.605332,-0.522666 4.778661,-1.269332 4.778661,-1.269332 v 2.389331 c 0,2.314665 -1.38133,4.18133 -3.546662,4.18133 -1.791999,0 -3.061331,-1.157332 -3.061331,-3.135997 0,-1.119999 0.373333,-1.679999 1.829332,-2.165332 z m 20.719951,7.727994 c 4.18133,0 6.38399,-2.837331 6.23466,-5.786662 l -2.61333,-0.186667 c -0.26133,1.866666 -1.38133,3.359998 -3.62133,3.359998 -2.352,0 -3.84533,-1.381333 -3.95733,-4.479997 -0.0747,-1.978665 -0.0747,-3.098664 0,-5.413328 0.112,-2.725331 1.64267,-4.106663 3.808,-4.106663 1.86666,0 3.47199,0.933332 3.58399,3.17333 l 2.8,-0.186666 c 0.112,-3.359997 -2.352,-5.599996 -6.38399,-5.599996 -3.92,0 -6.832,2.314665 -6.98133,6.719995 -0.0747,2.165331 -0.0747,3.546663 0,5.973328 0.112,4.367996 3.136,6.533328 7.13066,6.533328 z m 13.14135,-19.039984 -3.17333,1.306665 v 13.589322 c 0,3.73333 2.912,4.330663 5.6,3.583997 v -2.239998 c -1.75467,0 -2.42667,-0.597333 -2.42667,-2.463998 z m -3.73333,-6.047995 c 0,1.231999 0.896,2.127998 2.09067,2.127998 1.26933,0 2.20266,-0.895999 2.20266,-2.127998 0,-1.231999 -0.93333,-2.165331 -2.20266,-2.165331 -1.19467,0 -2.09067,0.933332 -2.09067,2.165331 z m 15.45596,22.287981 c -1.75466,0 -2.42666,-0.559999 -2.42666,-2.426665 V 8.865023 l -3.17333,1.306666 v 23.146647 c 0,3.73333 3.09866,4.293329 5.59999,3.546663 z m 13.58932,-6.869327 c 2.76266,-0.597333 3.28533,-0.933333 3.28533,-3.397331 0,-3.695997 -2.38933,-6.159995 -6.34666,-6.159995 -4.51733,0 -6.944,3.098664 -7.13066,6.943994 -0.0747,1.754666 -0.0747,2.911998 0,5.562662 0.112,3.994664 2.72533,6.719995 7.13066,6.719995 4.14399,0 6.45866,-2.837331 6.30933,-5.786662 l -2.61334,-0.186667 c -0.26133,1.866666 -1.38133,3.359998 -3.69599,3.359998 -2.38933,0 -3.99467,-1.605332 -3.99467,-4.666663 v -1.194666 c 0,0 4.256,-0.597333 7.056,-1.194665 z m -7.056,-2.015999 c 0,-2.874664 1.19467,-4.927995 3.99467,-4.927995 2.016,0 3.17333,1.343998 3.17333,3.471997 0,1.007999 -0.26133,1.343998 -1.904,1.717331 -2.576,0.56 -5.264,0.896 -5.264,0.896 z M 16.601165,70.539636 c 0.373333,-2.986664 -1.829332,-5.674662 -5.674662,-5.674662 -3.4719969,0 -6.1599946,2.165332 -6.1599946,5.450662 0,3.285331 2.4639979,4.591996 5.1893289,5.525329 2.6133307,0.895999 3.9946637,1.642665 3.9946637,3.210664 0,1.605332 -1.269333,2.426665 -3.023998,2.426665 -2.2773313,0 -3.6213301,-1.530666 -3.84533,-3.359998 l -2.7999976,0.186667 c 0.037333,3.210664 2.6133311,5.786662 6.6453276,5.786662 3.807997,0 6.197328,-2.351998 6.197328,-5.301329 0,-3.546664 -3.023997,-4.62933 -5.711995,-5.674662 -1.8666651,-0.709333 -3.471997,-1.418665 -3.471997,-3.135997 0,-1.530666 1.2693322,-2.501332 2.874664,-2.501332 1.866665,0 2.986664,1.231999 2.986664,3.247998 z m 7.952024,-5.487995 -3.173331,1.306665 v 13.589322 c 0,3.73333 2.911997,4.330663 5.599995,3.583997 v -2.239998 c -1.754665,0 -2.426664,-0.597333 -2.426664,-2.463998 z m -3.733331,-6.047995 c 0,1.231999 0.896,2.127998 2.090665,2.127998 1.269333,0 2.202665,-0.895999 2.202665,-2.127998 0,-1.231999 -0.933332,-2.165331 -2.202665,-2.165331 -1.194665,0 -2.090665,0.933332 -2.090665,2.165331 z m 24.415995,3.73333 c 0,-3.28533 0.933333,-4.405329 2.799998,-4.405329 1.530665,0 2.463998,0.634666 2.463998,0.634666 l 1.007999,-2.127998 c -0.671999,-0.597333 -1.903998,-1.306666 -3.658663,-1.306666 -3.210664,0 -5.786662,2.165331 -5.786662,7.018661 v 2.874664 h -2.613331 v 2.239998 h 2.613331 v 15.866653 h 3.17333 V 67.664972 h 4.479997 v -2.239998 h -4.479997 z m 21.989349,18.554651 c -1.605332,0 -2.426665,-0.186666 -2.426665,-2.053332 v -7.951993 c 0,-4.330663 -2.239998,-6.421328 -6.010661,-6.421328 -3.621331,0 -6.757328,2.277332 -6.346662,6.010662 l 2.799998,-0.224 c 0,-1.941332 1.231999,-3.173331 3.359997,-3.173331 2.314665,0 3.023997,1.455999 3.023997,3.994664 v 1.791998 c 0.07467,-0.03733 -3.73333,0.821333 -6.047994,1.493332 -2.799998,0.821333 -3.733331,1.642666 -3.733331,4.143997 0,3.210664 2.314665,5.189329 5.114663,5.189329 2.463998,0 3.95733,-1.119999 4.965329,-2.799998 h 0.112 c 0.597333,3.322664 4.405329,2.687998 5.189329,2.239998 z M 56.846544,76.363631 c 1.605332,-0.522666 4.778662,-1.269332 4.778662,-1.269332 v 2.389331 c 0,2.314665 -1.381332,4.18133 -3.546663,4.18133 -1.791999,0 -3.061331,-1.157332 -3.061331,-3.135997 0,-1.119999 0.373333,-1.679999 1.829332,-2.165332 z m 20.719951,7.727994 c 4.18133,0 6.383995,-2.837331 6.234661,-5.786662 l -2.613331,-0.186667 c -0.261333,1.866666 -1.381332,3.359998 -3.62133,3.359998 -2.351998,0 -3.84533,-1.381333 -3.95733,-4.479997 -0.07467,-1.978665 -0.07467,-3.098664 0,-5.413328 0.112,-2.725331 1.642665,-4.106664 3.807997,-4.106664 1.866665,0 3.471997,0.933333 3.583997,3.173331 l 2.799997,-0.186666 c 0.112,-3.359998 -2.351998,-5.599996 -6.383994,-5.599996 -3.919997,0 -6.831994,2.314665 -6.981328,6.719995 -0.07467,2.165331 -0.07467,3.546663 0,5.973328 0.112,4.367996 3.135998,6.533328 7.130661,6.533328 z M 90.70785,65.051641 87.534519,66.358306 v 13.589322 c 0,3.73333 2.911998,4.330663 5.599995,3.583997 v -2.239998 c -1.754665,0 -2.426664,-0.597333 -2.426664,-2.463998 z m -3.73333,-6.047995 c 0,1.231999 0.895999,2.127998 2.090664,2.127998 1.269333,0 2.202665,-0.895999 2.202665,-2.127998 0,-1.231999 -0.933332,-2.165331 -2.202665,-2.165331 -1.194665,0 -2.090664,0.933332 -2.090664,2.165331 z m 15.45596,22.287981 c -1.75467,0 -2.42667,-0.559999 -2.42667,-2.426665 V 55.531649 l -3.173326,1.306666 v 23.146647 c 0,3.73333 3.098664,4.293329 5.599996,3.546663 z M 116.01979,74.4223 c 2.76267,-0.597333 3.28533,-0.933333 3.28533,-3.397331 0,-3.695997 -2.38933,-6.159995 -6.34666,-6.159995 -4.51733,0 -6.94399,3.098664 -7.13066,6.943994 -0.0747,1.754666 -0.0747,2.911998 0,5.562662 0.112,3.994664 2.72533,6.719995 7.13066,6.719995 4.144,0 6.45866,-2.837331 6.30933,-5.786662 l -2.61333,-0.186667 c -0.26133,1.866666 -1.38133,3.359998 -3.696,3.359998 -2.38933,0 -3.99466,-1.605332 -3.99466,-4.666663 v -1.194666 c 0,0 4.256,-0.597333 7.05599,-1.194665 z m -7.05599,-2.015999 c 0,-2.874664 1.19467,-4.927996 3.99466,-4.927996 2.016,0 3.17333,1.343999 3.17333,3.471998 0,1.007999 -0.26133,1.343998 -1.904,1.717331 -2.57599,0.56 -5.26399,0.896 -5.26399,0.896 z"
         id="path1" />
    </symbol>
  </defs>
  <g
     id="text2"
     style="font-size:24px;font-family:'Fengardo Neue';-inkscape-font-specification:'Fengardo Neue, Normal';stroke-width:6"
     aria-label="Accessibilité&#10;Lisabilité&#10;Aisance">
    <path
       d="m 11.655561,18.384041 h 2.28 L 8.0555607,1.5840408 h -2.4 l 0.192,0.624 L 0.13556074,18.384041 H 2.2955607 l 1.536,-4.56 H 10.143561 Z M 6.4475607,5.9520408 l 0.552,-1.944 0.552,1.896 2.016,6.1200002 h -5.136 z M 20.29555,18.744041 c 2.688,0 4.104,-1.824 4.008,-3.72 l -1.68,-0.12 c -0.168,1.2 -0.888,2.16 -2.328,2.16 -1.512,0 -2.472,-0.888 -2.544,-2.88 -0.048,-1.272 -0.048,-1.992 0,-3.48 0.072,-1.7520002 1.056,-2.6400002 2.448,-2.6400002 1.2,0 2.232,0.6 2.304,2.0400002 l 1.8,-0.1200002 c 0.072,-2.16 -1.512,-3.6 -4.104,-3.6 -2.52,0 -4.392,1.488 -4.488,4.3200002 -0.048,1.392 -0.048,2.28 0,3.84 0.072,2.808 2.016,4.2 4.584,4.2 z m 10.800018,0 c 2.688,0 4.104,-1.824 4.008,-3.72 l -1.68,-0.12 c -0.168,1.2 -0.888,2.16 -2.328,2.16 -1.512,0 -2.472,-0.888 -2.544,-2.88 -0.048,-1.272 -0.048,-1.992 0,-3.48 0.072,-1.7520002 1.056,-2.6400002 2.448,-2.6400002 1.2,0 2.232,0.6 2.304,2.0400002 l 1.8,-0.1200002 c 0.072,-2.16 -1.512,-3.6 -4.104,-3.6 -2.52,0 -4.392,1.488 -4.488,4.3200002 -0.048,1.392 -0.048,2.28 0,3.84 0.072,2.808 2.016,4.2 4.584,4.2 z m 12.768018,-6.216 c 1.776,-0.384 2.112,-0.6 2.112,-2.184 0,-2.3760002 -1.536,-3.9600002 -4.08,-3.9600002 -2.904,0 -4.464,1.992 -4.584,4.4640002 -0.048,1.128 -0.048,1.872 0,3.576 0.072,2.568 1.752,4.32 4.584,4.32 2.664,0 4.152,-1.824 4.056,-3.72 l -1.68,-0.12 c -0.168,1.2 -0.888,2.16 -2.376,2.16 -1.536,0 -2.568,-1.032 -2.568,-3 v -0.768 c 0,0 2.736,-0.384 4.536,-0.768 z m -4.536,-1.296 c 0,-1.8480002 0.768,-3.1680002 2.568,-3.1680002 1.296,0 2.04,0.864 2.04,2.2320002 0,0.648 -0.168,0.864 -1.224,1.104 -1.656,0.36 -3.384,0.576 -3.384,0.576 z m 17.064003,-1.2 c 0.24,-1.9200002 -1.176,-3.6480002 -3.648,-3.6480002 -2.232,0 -3.96,1.392 -3.96,3.504 0,2.1120002 1.584,2.9520002 3.336,3.5520002 1.68,0.576 2.568,1.056 2.568,2.064 0,1.032 -0.816,1.56 -1.944,1.56 -1.464,0 -2.328,-0.984 -2.472,-2.16 l -1.8,0.12 c 0.024,2.064 1.68,3.72 4.272,3.72 2.448,0 3.984,-1.512 3.984,-3.408 0,-2.28 -1.944,-2.976 -3.672,-3.648 -1.2,-0.456 -2.232,-0.912 -2.232,-2.0160002 0,-0.984 0.816,-1.608 1.848,-1.608 1.2,0 1.92,0.792 1.92,2.0880002 z m 10.632019,0 c 0.24,-1.9200002 -1.176,-3.6480002 -3.648,-3.6480002 -2.232,0 -3.96,1.392 -3.96,3.504 0,2.1120002 1.584,2.9520002 3.336,3.5520002 1.68,0.576 2.568,1.056 2.568,2.064 0,1.032 -0.816,1.56 -1.944,1.56 -1.464,0 -2.328,-0.984 -2.472,-2.16 l -1.8,0.12 c 0.024,2.064 1.68,3.72 4.272,3.72 2.448,0 3.984,-1.512 3.984,-3.408 0,-2.28 -1.944,-2.976 -3.672,-3.648 -1.2,-0.456 -2.232,-0.912 -2.232,-2.0160002 0,-0.984 0.816,-1.608 1.848,-1.608 1.2,0 1.92,0.792 1.92,2.0880002 z m 5.112019,-3.5280002 -2.04,0.84 v 8.7360002 c 0,2.4 1.872,2.784 3.6,2.304 v -1.44 c -1.128,0 -1.56,-0.384 -1.56,-1.584 z m -2.4,-3.888 c 0,0.792 0.576,1.368 1.344,1.368 0.816,0 1.416,-0.576 1.416,-1.368 0,-0.792 -0.6,-1.392 -1.416,-1.392 -0.768,0 -1.344,0.6 -1.344,1.392 z m 8.615988,7.7760002 c 0,-1.0560002 1.296,-2.3280002 2.88,-2.3280002 1.2,0 2.28,0.744 2.328,2.3520002 0.048,1.512 0.072,2.352 0,3.984 -0.072,1.872 -1.272,2.664 -2.856,2.664 -0.84,0 -1.728,-0.144 -2.352,-0.408 z m -2.04,7.2 c 1.2,0.72 3.216,1.152 4.584,1.152 2.496,0 4.632,-1.728 4.704,-4.344 0.048,-1.56 0.048,-2.376 0,-4.008 -0.096,-2.6400002 -1.68,-4.0080002 -3.792,-4.0080002 -1.608,0 -2.856,0.984 -3.432,1.92 h -0.024 V 0.38404083 l -2.04,0.83999997 z m 14.351997,-11.0880002 -2.04,0.84 v 8.7360002 c 0,2.4 1.872,2.784 3.6,2.304 v -1.44 c -1.128,0 -1.56,-0.384 -1.56,-1.584 z m -2.4,-3.888 c 0,0.792 0.576,1.368 1.344,1.368 0.816,0 1.416,-0.576 1.416,-1.368 0,-0.792 -0.6,-1.392 -1.416,-1.392 -0.768,0 -1.344,0.6 -1.344,1.392 z M 98.1996,16.944041 c -1.128,0 -1.56,-0.36 -1.56,-1.56 V 0.38404083 l -2.04,0.83999997 V 16.104041 c 0,2.4 1.992,2.76 3.6,2.28 z m 4.41599,-10.4400002 -2.04,0.84 v 8.7360002 c 0,2.4 1.872,2.784 3.6,2.304 v -1.44 c -1.128,0 -1.56,-0.384 -1.56,-1.584 z m -2.4,-3.888 c 0,0.792 0.576,1.368 1.344,1.368 0.816,0 1.416,-0.576 1.416,-1.368 0,-0.792 -0.6,-1.392 -1.416,-1.392 -0.768,0 -1.344,0.6 -1.344,1.392 z m 8.85599,12.4560002 V 8.1840408 h 3.216 v -1.44 h -3.216 v -3.36 l -2.04,0.84 v 2.52 h -1.68 v 1.44 h 1.68 v 6.9840002 c 0,2.64 1.632,3.576 3.336,3.576 0.6,0 1.632,-0.096 2.28,-0.36 l -0.096,-1.44 c 0,0 -0.72,0.12 -1.488,0.12 -1.032,0 -1.992,-0.24 -1.992,-1.992 z m 11.712,-2.544 c 1.776,-0.384 2.112,-0.6 2.112,-2.184 0,-2.3760002 -1.536,-3.9600002 -4.08,-3.9600002 -2.904,0 -4.464,1.992 -4.584,4.4640002 -0.048,1.128 -0.048,1.872 0,3.576 0.072,2.568 1.752,4.32 4.584,4.32 2.664,0 4.152,-1.824 4.056,-3.72 l -1.68,-0.12 c -0.168,1.2 -0.888,2.16 -2.376,2.16 -1.536,0 -2.568,-1.032 -2.568,-3 v -0.768 c 0,0 2.736,-0.384 4.536,-0.768 z m -4.536,-1.296 c 0,-1.8480002 0.768,-3.1680002 2.568,-3.1680002 1.296,0 2.04,0.864 2.04,2.2320002 0,0.648 -0.168,0.864 -1.224,1.104 -1.656,0.36 -3.384,0.576 -3.384,0.576 z m 3.6,-9.6480002 -2.64,3.48 h 1.872 l 3.168,-3.48 z"
       id="path8" />
    <path
       d="m 1.9355607,48.384041 h 8.9760003 v -1.8 H 4.0955607 v -15 h -2.16 z m 12.7439963,-11.88 -2.04,0.84 v 8.736 c 0,2.4 1.872,2.784 3.6,2.304 v -1.44 c -1.128,0 -1.56,-0.384 -1.56,-1.584 z m -2.4,-3.888 c 0,0.792 0.576,1.368 1.344,1.368 0.816,0 1.416,-0.576 1.416,-1.368 0,-0.792 -0.6,-1.392 -1.416,-1.392 -0.768,0 -1.344,0.6 -1.344,1.392 z m 13.775988,7.416 c 0.24,-1.92 -1.176,-3.648 -3.648,-3.648 -2.232,0 -3.96,1.392 -3.96,3.504 0,2.112 1.584,2.952 3.336,3.552 1.68,0.576 2.568,1.056 2.568,2.064 0,1.032 -0.816,1.56 -1.944,1.56 -1.464,0 -2.328,-0.984 -2.472,-2.16 l -1.8,0.12 c 0.024,2.064 1.68,3.72 4.272,3.72 2.448,0 3.984,-1.512 3.984,-3.408 0,-2.28 -1.944,-2.976 -3.672,-3.648 -1.2,-0.456 -2.232,-0.912 -2.232,-2.016 0,-0.984 0.816,-1.608 1.848,-1.608 1.2,0 1.92,0.792 1.92,2.088 z m 12.600019,6.912 c -1.032,0 -1.56,-0.12 -1.56,-1.32 v -5.112 c 0,-2.784 -1.44,-4.128 -3.864,-4.128 -2.328,0 -4.344,1.464 -4.08,3.864 l 1.8,-0.144 c 0,-1.248 0.792,-2.04 2.16,-2.04 1.488,0 1.944,0.936 1.944,2.568 v 1.152 c 0.048,-0.024 -2.4,0.528 -3.888,0.96 -1.8,0.528 -2.4,1.056 -2.4,2.664 0,2.064 1.488,3.336 3.288,3.336 1.584,0 2.544,-0.72 3.192,-1.8 h 0.072 c 0.384,2.136 2.832,1.728 3.336,1.44 z m -6.672,-3.168 c 1.032,-0.336 3.072,-0.816 3.072,-0.816 v 1.536 c 0,1.488 -0.888,2.688 -2.28,2.688 -1.152,0 -1.968,-0.744 -1.968,-2.016 0,-0.72 0.24,-1.08 1.176,-1.392 z m 11.327981,-3.384 c 0,-1.056 1.296,-2.328 2.88,-2.328 1.2,0 2.28,0.744 2.328,2.352 0.048,1.512 0.072,2.352 0,3.984 -0.072,1.872 -1.272,2.664 -2.856,2.664 -0.84,0 -1.728,-0.144 -2.352,-0.408 z m -2.04,7.2 c 1.2,0.72 3.216,1.152 4.584,1.152 2.496,0 4.632,-1.728 4.704,-4.344 0.048,-1.56 0.048,-2.376 0,-4.008 -0.096,-2.64 -1.68,-4.008 -3.792,-4.008 -1.608,0 -2.856,0.984 -3.432,1.92 h -0.024 v -7.92 l -2.04,0.84 z m 14.351997,-11.088 -2.04,0.84 v 8.736 c 0,2.4 1.872,2.784 3.6,2.304 v -1.44 c -1.128,0 -1.56,-0.384 -1.56,-1.584 z m -2.4,-3.888 c 0,0.792 0.576,1.368 1.344,1.368 0.816,0 1.416,-0.576 1.416,-1.368 0,-0.792 -0.6,-1.392 -1.416,-1.392 -0.768,0 -1.344,0.6 -1.344,1.392 z m 9.935988,14.328 c -1.128,0 -1.56,-0.36 -1.56,-1.56 v -15 l -2.04,0.84 v 14.88 c 0,2.4 1.992,2.76 3.6,2.28 z m 4.415993,-10.44 -2.04,0.84 v 8.736 c 0,2.4 1.872,2.784 3.6,2.304 v -1.44 c -1.128,0 -1.56,-0.384 -1.56,-1.584 z m -2.4,-3.888 c 0,0.792 0.576,1.368 1.344,1.368 0.816,0 1.416,-0.576 1.416,-1.368 0,-0.792 -0.6,-1.392 -1.416,-1.392 -0.768,0 -1.344,0.6 -1.344,1.392 z m 8.855988,12.456 v -6.888 h 3.216 v -1.44 h -3.216 v -3.36 l -2.04,0.84 v 2.52 h -1.68 v 1.44 h 1.68 v 6.984 c 0,2.64 1.632,3.576 3.336,3.576 0.6,0 1.632,-0.096 2.28,-0.36 l -0.096,-1.44 c 0,0 -0.72,0.12 -1.488,0.12 -1.032,0 -1.992,-0.24 -1.992,-1.992 z m 11.712004,-2.544 c 1.776,-0.384 2.112,-0.6 2.112,-2.184 0,-2.376 -1.536,-3.96 -4.08,-3.96 -2.904,0 -4.464,1.992 -4.584,4.464 -0.048,1.128 -0.048,1.872 0,3.576 0.072,2.568 1.752,4.32 4.584,4.32 2.664,0 4.152,-1.824 4.056,-3.72 l -1.68,-0.12 c -0.168,1.2 -0.888,2.16 -2.376,2.16 -1.536,0 -2.568,-1.032 -2.568,-3 v -0.768 c 0,0 2.736,-0.384 4.536,-0.768 z m -4.536,-1.296 c 0,-1.848 0.768,-3.168 2.568,-3.168 1.296,0 2.04,0.864 2.04,2.232 0,0.648 -0.168,0.864 -1.224,1.104 -1.656,0.36 -3.384,0.576 -3.384,0.576 z m 3.6,-9.648 -2.64,3.48 h 1.872 l 3.168,-3.48 z"
       id="path9" />
    <path
       d="m 11.655561,78.384041 h 2.28 l -5.8800003,-16.8 h -2.4 l 0.192,0.624 -5.71199996,16.176 H 2.2955607 l 1.536,-4.56 h 6.3120003 z m -5.2080003,-12.432 0.552,-1.944 0.552,1.896 2.016,6.12 h -5.136 z m 11.4959893,0.552 -2.04,0.84 v 8.736 c 0,2.4 1.872,2.784 3.6,2.304 v -1.44 c -1.128,0 -1.56,-0.384 -1.56,-1.584 z m -2.4,-3.888 c 0,0.792 0.576,1.368 1.344,1.368 0.816,0 1.416,-0.576 1.416,-1.368 0,-0.792 -0.6,-1.392 -1.416,-1.392 -0.768,0 -1.344,0.6 -1.344,1.392 z m 13.775987,7.416 c 0.24,-1.92 -1.176,-3.648 -3.648,-3.648 -2.232,0 -3.96,1.392 -3.96,3.504 0,2.112 1.584,2.952 3.336,3.552 1.68,0.576 2.568,1.056 2.568,2.064 0,1.032 -0.816,1.56 -1.944,1.56 -1.464,0 -2.328,-0.984 -2.472,-2.16 l -1.8,0.12 c 0.024,2.064 1.68,3.72 4.272,3.72 2.448,0 3.984,-1.512 3.984,-3.408 0,-2.28 -1.944,-2.976 -3.672,-3.648 -1.2,-0.456 -2.232,-0.912 -2.232,-2.016 0,-0.984 0.816,-1.608 1.848,-1.608 1.2,0 1.92,0.792 1.92,2.088 z m 12.600019,6.912 c -1.032,0 -1.56,-0.12 -1.56,-1.32 v -5.112 c 0,-2.784 -1.44,-4.128 -3.864,-4.128 -2.328,0 -4.344,1.464 -4.08,3.864 l 1.8,-0.144 c 0,-1.248 0.792,-2.04 2.16,-2.04 1.488,0 1.944,0.936 1.944,2.568 v 1.152 c 0.048,-0.024 -2.4,0.528 -3.888,0.96 -1.8,0.528 -2.4,1.056 -2.4,2.664 0,2.064 1.488,3.336 3.288,3.336 1.584,0 2.544,-0.72 3.192,-1.8 h 0.072 c 0.384,2.136 2.832,1.728 3.336,1.44 z m -6.672,-3.168 c 1.032,-0.336 3.072,-0.816 3.072,-0.816 v 1.536 c 0,1.488 -0.888,2.688 -2.28,2.688 -1.152,0 -1.968,-0.744 -1.968,-2.016 0,-0.72 0.24,-1.08 1.176,-1.392 z m 9.527982,4.608 h 2.04 v -7.968 c 0,-0.936 1.104,-2.352 2.808,-2.352 1.44,0 2.208,0.72 2.208,2.496 v 7.824 h 2.04 v -8.064 c 0,-2.448 -1.416,-3.936 -3.576,-3.936 -1.656,0 -2.904,0.792 -3.624,1.968 h -0.024 c -0.216,-1.2 -1.128,-1.728 -2.136,-1.728 -0.432,0 -0.792,0.072 -1.176,0.24 v 1.32 c 0.936,0 1.44,0.144 1.44,1.104 z m 16.704002,0.36 c 2.688,0 4.104,-1.824 4.008,-3.72 l -1.68,-0.12 c -0.168,1.2 -0.888,2.16 -2.328,2.16 -1.512,0 -2.472,-0.888 -2.544,-2.88 -0.048,-1.272 -0.048,-1.992 0,-3.48 0.072,-1.752 1.056,-2.64 2.448,-2.64 1.2,0 2.232,0.6 2.304,2.04 l 1.8,-0.12 c 0.072,-2.16 -1.512,-3.6 -4.104,-3.6 -2.52,0 -4.392,1.488 -4.488,4.32 -0.048,1.392 -0.048,2.28 0,3.84 0.072,2.808 2.016,4.2 4.584,4.2 z m 12.768019,-6.216 c 1.776,-0.384 2.112,-0.6 2.112,-2.184 0,-2.376 -1.536,-3.96 -4.08,-3.96 -2.904,0 -4.464,1.992 -4.584,4.464 -0.048,1.128 -0.048,1.872 0,3.576 0.072,2.568 1.752,4.32 4.584,4.32 2.664,0 4.152,-1.824 4.056,-3.72 l -1.68,-0.12 c -0.168,1.2 -0.888,2.16 -2.376,2.16 -1.536,0 -2.568,-1.032 -2.568,-3 v -0.768 c 0,0 2.736,-0.384 4.536,-0.768 z m -4.536,-1.296 c 0,-1.848 0.768,-3.168 2.568,-3.168 1.296,0 2.04,0.864 2.04,2.232 0,0.648 -0.168,0.864 -1.224,1.104 -1.656,0.36 -3.384,0.576 -3.384,0.576 z"
       id="path10" />
  </g>
  <g
     id="text2-6"
     style="font-size:24px;font-family:'Fengardo Neue';-inkscape-font-specification:'Fengardo Neue, Normal';fill:#ffffff;stroke-width:6"
     aria-label="Accessibilité&#10;Lisabilité&#10;Aisance">
    <path
       d="m 140.44767,119.65087 h 2.28 l -5.88,-16.8 h -2.4 l 0.192,0.624 -5.712,16.176 h 2.16 l 1.536,-4.56 h 6.312 z m -5.208,-12.432 0.552,-1.944 0.552,1.896 2.016,6.12 h -5.136 z m 13.84799,12.792 c 2.688,0 4.104,-1.824 4.008,-3.72 l -1.68,-0.12 c -0.168,1.2 -0.888,2.16 -2.328,2.16 -1.512,0 -2.472,-0.888 -2.544,-2.88 -0.048,-1.272 -0.048,-1.992 0,-3.48 0.072,-1.752 1.056,-2.64 2.448,-2.64 1.2,0 2.232,0.6 2.304,2.04 l 1.8,-0.12 c 0.072,-2.16 -1.512,-3.6 -4.104,-3.6 -2.52,0 -4.392,1.488 -4.488,4.32 -0.048,1.392 -0.048,2.28 0,3.84 0.072,2.808 2.016,4.2 4.584,4.2 z m 10.80002,0 c 2.688,0 4.104,-1.824 4.008,-3.72 l -1.68,-0.12 c -0.168,1.2 -0.888,2.16 -2.328,2.16 -1.512,0 -2.472,-0.888 -2.544,-2.88 -0.048,-1.272 -0.048,-1.992 0,-3.48 0.072,-1.752 1.056,-2.64 2.448,-2.64 1.2,0 2.232,0.6 2.304,2.04 l 1.8,-0.12 c 0.072,-2.16 -1.512,-3.6 -4.104,-3.6 -2.52,0 -4.392,1.488 -4.488,4.32 -0.048,1.392 -0.048,2.28 0,3.84 0.072,2.808 2.016,4.2 4.584,4.2 z m 12.76802,-6.216 c 1.776,-0.384 2.112,-0.6 2.112,-2.184 0,-2.376 -1.536,-3.96 -4.08,-3.96 -2.904,0 -4.464,1.992 -4.584,4.464 -0.048,1.128 -0.048,1.872 0,3.576 0.072,2.568 1.752,4.32 4.584,4.32 2.664,0 4.152,-1.824 4.056,-3.72 l -1.68,-0.12 c -0.168,1.2 -0.888,2.16 -2.376,2.16 -1.536,0 -2.568,-1.032 -2.568,-3 v -0.768 c 0,0 2.736,-0.384 4.536,-0.768 z m -4.536,-1.296 c 0,-1.848 0.768,-3.168 2.568,-3.168 1.296,0 2.04,0.864 2.04,2.232 0,0.648 -0.168,0.864 -1.224,1.104 -1.656,0.36 -3.384,0.576 -3.384,0.576 z m 17.064,-1.2 c 0.24,-1.92 -1.176,-3.648 -3.648,-3.648 -2.232,0 -3.96,1.392 -3.96,3.504 0,2.112 1.584,2.952 3.336,3.552 1.68,0.576 2.568,1.056 2.568,2.064 0,1.032 -0.816,1.56 -1.944,1.56 -1.464,0 -2.328,-0.984 -2.472,-2.16 l -1.8,0.12 c 0.024,2.064 1.68,3.72 4.272,3.72 2.448,0 3.984,-1.512 3.984,-3.408 0,-2.28 -1.944,-2.976 -3.672,-3.648 -1.2,-0.456 -2.232,-0.912 -2.232,-2.016 0,-0.984 0.816,-1.608 1.848,-1.608 1.2,0 1.92,0.792 1.92,2.088 z m 10.63202,0 c 0.24,-1.92 -1.176,-3.648 -3.648,-3.648 -2.232,0 -3.96,1.392 -3.96,3.504 0,2.112 1.584,2.952 3.336,3.552 1.68,0.576 2.568,1.056 2.568,2.064 0,1.032 -0.816,1.56 -1.944,1.56 -1.464,0 -2.328,-0.984 -2.472,-2.16 l -1.8,0.12 c 0.024,2.064 1.68,3.72 4.272,3.72 2.448,0 3.984,-1.512 3.984,-3.408 0,-2.28 -1.944,-2.976 -3.672,-3.648 -1.2,-0.456 -2.232,-0.912 -2.232,-2.016 0,-0.984 0.816,-1.608 1.848,-1.608 1.2,0 1.92,0.792 1.92,2.088 z m 5.11202,-3.528 -2.04,0.84 v 8.736 c 0,2.4 1.872,2.784 3.6,2.304 v -1.44 c -1.128,0 -1.56,-0.384 -1.56,-1.584 z m -2.4,-3.888 c 0,0.792 0.576,1.368 1.344,1.368 0.816,0 1.416,-0.576 1.416,-1.368 0,-0.792 -0.6,-1.392 -1.416,-1.392 -0.768,0 -1.344,0.6 -1.344,1.392 z m 8.61599,7.776 c 0,-1.056 1.296,-2.328 2.88,-2.328 1.2,0 2.28,0.744 2.328,2.352 0.048,1.512 0.072,2.352 0,3.984 -0.072,1.872 -1.272,2.664 -2.856,2.664 -0.84,0 -1.728,-0.144 -2.352,-0.408 z m -2.04,7.2 c 1.2,0.72 3.216,1.152 4.584,1.152 2.496,0 4.632,-1.728 4.704,-4.344 0.048,-1.56 0.048,-2.376 0,-4.008 -0.096,-2.64 -1.68,-4.008 -3.792,-4.008 -1.608,0 -2.856,0.984 -3.432,1.92 h -0.024 v -7.92 l -2.04,0.84 z m 14.35199,-11.088 -2.04,0.84 v 8.736 c 0,2.4 1.872,2.784 3.6,2.304 v -1.44 c -1.128,0 -1.56,-0.384 -1.56,-1.584 z m -2.4,-3.888 c 0,0.792 0.576,1.368 1.344,1.368 0.816,0 1.416,-0.576 1.416,-1.368 0,-0.792 -0.6,-1.392 -1.416,-1.392 -0.768,0 -1.344,0.6 -1.344,1.392 z m 9.93599,14.328 c -1.128,0 -1.56,-0.36 -1.56,-1.56 v -15 l -2.04,0.84 v 14.88 c 0,2.4 1.992,2.76 3.6,2.28 z m 4.41599,-10.44 -2.04,0.84 v 8.736 c 0,2.4 1.872,2.784 3.6,2.304 v -1.44 c -1.128,0 -1.56,-0.384 -1.56,-1.584 z m -2.4,-3.888 c 0,0.792 0.576,1.368 1.344,1.368 0.816,0 1.416,-0.576 1.416,-1.368 0,-0.792 -0.6,-1.392 -1.416,-1.392 -0.768,0 -1.344,0.6 -1.344,1.392 z m 8.85599,12.456 v -6.888 h 3.216 v -1.44 h -3.216 v -3.36 l -2.04,0.84 v 2.52 h -1.68 v 1.44 h 1.68 v 6.984 c 0,2.64 1.632,3.576 3.336,3.576 0.6,0 1.632,-0.096 2.28,-0.36 l -0.096,-1.44 c 0,0 -0.72,0.12 -1.488,0.12 -1.032,0 -1.992,-0.24 -1.992,-1.992 z m 11.71201,-2.544 c 1.776,-0.384 2.112,-0.6 2.112,-2.184 0,-2.376 -1.536,-3.96 -4.08,-3.96 -2.904,0 -4.464,1.992 -4.584,4.464 -0.048,1.128 -0.048,1.872 0,3.576 0.072,2.568 1.752,4.32 4.584,4.32 2.664,0 4.152,-1.824 4.056,-3.72 l -1.68,-0.12 c -0.168,1.2 -0.888,2.16 -2.376,2.16 -1.536,0 -2.568,-1.032 -2.568,-3 v -0.768 c 0,0 2.736,-0.384 4.536,-0.768 z m -4.536,-1.296 c 0,-1.848 0.768,-3.168 2.568,-3.168 1.296,0 2.04,0.864 2.04,2.232 0,0.648 -0.168,0.864 -1.224,1.104 -1.656,0.36 -3.384,0.576 -3.384,0.576 z m 3.6,-9.648 -2.64,3.48 h 1.872 l 3.168,-3.48 z"
       id="path5" />
    <path
       d="m 130.72767,149.65087 h 8.976 v -1.8 h -6.816 v -15 h -2.16 z m 12.744,-11.88 -2.04,0.84 v 8.736 c 0,2.4 1.872,2.784 3.6,2.304 v -1.44 c -1.128,0 -1.56,-0.384 -1.56,-1.584 z m -2.4,-3.888 c 0,0.792 0.576,1.368 1.344,1.368 0.816,0 1.416,-0.576 1.416,-1.368 0,-0.792 -0.6,-1.392 -1.416,-1.392 -0.768,0 -1.344,0.6 -1.344,1.392 z m 13.77599,7.416 c 0.24,-1.92 -1.176,-3.648 -3.648,-3.648 -2.232,0 -3.96,1.392 -3.96,3.504 0,2.112 1.584,2.952 3.336,3.552 1.68,0.576 2.568,1.056 2.568,2.064 0,1.032 -0.816,1.56 -1.944,1.56 -1.464,0 -2.328,-0.984 -2.472,-2.16 l -1.8,0.12 c 0.024,2.064 1.68,3.72 4.272,3.72 2.448,0 3.984,-1.512 3.984,-3.408 0,-2.28 -1.944,-2.976 -3.672,-3.648 -1.2,-0.456 -2.232,-0.912 -2.232,-2.016 0,-0.984 0.816,-1.608 1.848,-1.608 1.2,0 1.92,0.792 1.92,2.088 z m 12.60002,6.912 c -1.032,0 -1.56,-0.12 -1.56,-1.32 v -5.112 c 0,-2.784 -1.44,-4.128 -3.864,-4.128 -2.328,0 -4.344,1.464 -4.08,3.864 l 1.8,-0.144 c 0,-1.248 0.792,-2.04 2.16,-2.04 1.488,0 1.944,0.936 1.944,2.568 v 1.152 c 0.048,-0.024 -2.4,0.528 -3.888,0.96 -1.8,0.528 -2.4,1.056 -2.4,2.664 0,2.064 1.488,3.336 3.288,3.336 1.584,0 2.544,-0.72 3.192,-1.8 h 0.072 c 0.384,2.136 2.832,1.728 3.336,1.44 z m -6.672,-3.168 c 1.032,-0.336 3.072,-0.816 3.072,-0.816 v 1.536 c 0,1.488 -0.888,2.688 -2.28,2.688 -1.152,0 -1.968,-0.744 -1.968,-2.016 0,-0.72 0.24,-1.08 1.176,-1.392 z m 11.32798,-3.384 c 0,-1.056 1.296,-2.328 2.88,-2.328 1.2,0 2.28,0.744 2.328,2.352 0.048,1.512 0.072,2.352 0,3.984 -0.072,1.872 -1.272,2.664 -2.856,2.664 -0.84,0 -1.728,-0.144 -2.352,-0.408 z m -2.04,7.2 c 1.2,0.72 3.216,1.152 4.584,1.152 2.496,0 4.632,-1.728 4.704,-4.344 0.048,-1.56 0.048,-2.376 0,-4.008 -0.096,-2.64 -1.68,-4.008 -3.792,-4.008 -1.608,0 -2.856,0.984 -3.432,1.92 h -0.024 v -7.92 l -2.04,0.84 z m 14.35199,-11.088 -2.04,0.84 v 8.736 c 0,2.4 1.872,2.784 3.6,2.304 v -1.44 c -1.128,0 -1.56,-0.384 -1.56,-1.584 z m -2.4,-3.888 c 0,0.792 0.576,1.368 1.344,1.368 0.816,0 1.416,-0.576 1.416,-1.368 0,-0.792 -0.6,-1.392 -1.416,-1.392 -0.768,0 -1.344,0.6 -1.344,1.392 z m 9.93599,14.328 c -1.128,0 -1.56,-0.36 -1.56,-1.56 v -15 l -2.04,0.84 v 14.88 c 0,2.4 1.992,2.76 3.6,2.28 z m 4.416,-10.44 -2.04,0.84 v 8.736 c 0,2.4 1.872,2.784 3.6,2.304 v -1.44 c -1.128,0 -1.56,-0.384 -1.56,-1.584 z m -2.4,-3.888 c 0,0.792 0.576,1.368 1.344,1.368 0.816,0 1.416,-0.576 1.416,-1.368 0,-0.792 -0.6,-1.392 -1.416,-1.392 -0.768,0 -1.344,0.6 -1.344,1.392 z m 8.85598,12.456 v -6.888 h 3.216 v -1.44 h -3.216 v -3.36 l -2.04,0.84 v 2.52 h -1.68 v 1.44 h 1.68 v 6.984 c 0,2.64 1.632,3.576 3.336,3.576 0.6,0 1.632,-0.096 2.28,-0.36 l -0.096,-1.44 c 0,0 -0.72,0.12 -1.488,0.12 -1.032,0 -1.992,-0.24 -1.992,-1.992 z m 11.71201,-2.544 c 1.776,-0.384 2.112,-0.6 2.112,-2.184 0,-2.376 -1.536,-3.96 -4.08,-3.96 -2.904,0 -4.464,1.992 -4.584,4.464 -0.048,1.128 -0.048,1.872 0,3.576 0.072,2.568 1.752,4.32 4.584,4.32 2.664,0 4.152,-1.824 4.056,-3.72 l -1.68,-0.12 c -0.168,1.2 -0.888,2.16 -2.376,2.16 -1.536,0 -2.568,-1.032 -2.568,-3 v -0.768 c 0,0 2.736,-0.384 4.536,-0.768 z m -4.536,-1.296 c 0,-1.848 0.768,-3.168 2.568,-3.168 1.296,0 2.04,0.864 2.04,2.232 0,0.648 -0.168,0.864 -1.224,1.104 -1.656,0.36 -3.384,0.576 -3.384,0.576 z m 3.6,-9.648 -2.64,3.48 h 1.872 l 3.168,-3.48 z"
       id="path6" />
    <path
       d="m 140.44767,179.65087 h 2.28 l -5.88,-16.8 h -2.4 l 0.192,0.624 -5.712,16.176 h 2.16 l 1.536,-4.56 h 6.312 z m -5.208,-12.432 0.552,-1.944 0.552,1.896 2.016,6.12 h -5.136 z m 11.49599,0.552 -2.04,0.84 v 8.736 c 0,2.4 1.872,2.784 3.6,2.304 v -1.44 c -1.128,0 -1.56,-0.384 -1.56,-1.584 z m -2.4,-3.888 c 0,0.792 0.576,1.368 1.344,1.368 0.816,0 1.416,-0.576 1.416,-1.368 0,-0.792 -0.6,-1.392 -1.416,-1.392 -0.768,0 -1.344,0.6 -1.344,1.392 z m 13.77599,7.416 c 0.24,-1.92 -1.176,-3.648 -3.648,-3.648 -2.232,0 -3.96,1.392 -3.96,3.504 0,2.112 1.584,2.952 3.336,3.552 1.68,0.576 2.568,1.056 2.568,2.064 0,1.032 -0.816,1.56 -1.944,1.56 -1.464,0 -2.328,-0.984 -2.472,-2.16 l -1.8,0.12 c 0.024,2.064 1.68,3.72 4.272,3.72 2.448,0 3.984,-1.512 3.984,-3.408 0,-2.28 -1.944,-2.976 -3.672,-3.648 -1.2,-0.456 -2.232,-0.912 -2.232,-2.016 0,-0.984 0.816,-1.608 1.848,-1.608 1.2,0 1.92,0.792 1.92,2.088 z m 12.60002,6.912 c -1.032,0 -1.56,-0.12 -1.56,-1.32 v -5.112 c 0,-2.784 -1.44,-4.128 -3.864,-4.128 -2.328,0 -4.344,1.464 -4.08,3.864 l 1.8,-0.144 c 0,-1.248 0.792,-2.04 2.16,-2.04 1.488,0 1.944,0.936 1.944,2.568 v 1.152 c 0.048,-0.024 -2.4,0.528 -3.888,0.96 -1.8,0.528 -2.4,1.056 -2.4,2.664 0,2.064 1.488,3.336 3.288,3.336 1.584,0 2.544,-0.72 3.192,-1.8 h 0.072 c 0.384,2.136 2.832,1.728 3.336,1.44 z m -6.672,-3.168 c 1.032,-0.336 3.072,-0.816 3.072,-0.816 v 1.536 c 0,1.488 -0.888,2.688 -2.28,2.688 -1.152,0 -1.968,-0.744 -1.968,-2.016 0,-0.72 0.24,-1.08 1.176,-1.392 z m 9.52798,4.608 h 2.04 v -7.968 c 0,-0.936 1.104,-2.352 2.808,-2.352 1.44,0 2.208,0.72 2.208,2.496 v 7.824 h 2.04 v -8.064 c 0,-2.448 -1.416,-3.936 -3.576,-3.936 -1.656,0 -2.904,0.792 -3.624,1.968 h -0.024 c -0.216,-1.2 -1.128,-1.728 -2.136,-1.728 -0.432,0 -0.792,0.072 -1.176,0.24 v 1.32 c 0.936,0 1.44,0.144 1.44,1.104 z m 16.704,0.36 c 2.688,0 4.104,-1.824 4.008,-3.72 l -1.68,-0.12 c -0.168,1.2 -0.888,2.16 -2.328,2.16 -1.512,0 -2.472,-0.888 -2.544,-2.88 -0.048,-1.272 -0.048,-1.992 0,-3.48 0.072,-1.752 1.056,-2.64 2.448,-2.64 1.2,0 2.232,0.6 2.304,2.04 l 1.8,-0.12 c 0.072,-2.16 -1.512,-3.6 -4.104,-3.6 -2.52,0 -4.392,1.488 -4.488,4.32 -0.048,1.392 -0.048,2.28 0,3.84 0.072,2.808 2.016,4.2 4.584,4.2 z m 12.76802,-6.216 c 1.776,-0.384 2.112,-0.6 2.112,-2.184 0,-2.376 -1.536,-3.96 -4.08,-3.96 -2.904,0 -4.464,1.992 -4.584,4.464 -0.048,1.128 -0.048,1.872 0,3.576 0.072,2.568 1.752,4.32 4.584,4.32 2.664,0 4.152,-1.824 4.056,-3.72 l -1.68,-0.12 c -0.168,1.2 -0.888,2.16 -2.376,2.16 -1.536,0 -2.568,-1.032 -2.568,-3 v -0.768 c 0,0 2.736,-0.384 4.536,-0.768 z m -4.536,-1.296 c 0,-1.848 0.768,-3.168 2.568,-3.168 1.296,0 2.04,0.864 2.04,2.232 0,0.648 -0.168,0.864 -1.224,1.104 -1.656,0.36 -3.384,0.576 -3.384,0.576 z"
       id="path7" />
  </g>
</svg>
