<?xml version="1.0" encoding="UTF-8" standalone="no"?>
<svg
   viewBox="0 0 252 180"
   version="1.1"
   id="svg2"
   xmlns="http://www.w3.org/2000/svg"
   xmlns:svg="http://www.w3.org/2000/svg">
   <defs>
     <symbol id="a" viewBox="0 0 123 90">
        <path
       d="m 11.655561,18.384041 h 2.28 L 8.0555607,1.5840408 h -2.4 l 0.192,0.624 L 0.13556074,18.384041 H 2.2955607 l 1.536,-4.56 H 10.143561 Z M 6.4475607,5.9520408 l 0.552,-1.944 0.552,1.896 2.016,6.1200002 h -5.136 z M 20.29555,18.744041 c 2.688,0 4.104,-1.824 4.008,-3.72 l -1.68,-0.12 c -0.168,1.2 -0.888,2.16 -2.328,2.16 -1.512,0 -2.472,-0.888 -2.544,-2.88 -0.048,-1.272 -0.048,-1.992 0,-3.48 0.072,-1.7520002 1.056,-2.6400002 2.448,-2.6400002 1.2,0 2.232,0.6 2.304,2.0400002 l 1.8,-0.1200002 c 0.072,-2.16 -1.512,-3.6 -4.104,-3.6 -2.52,0 -4.392,1.488 -4.488,4.3200002 -0.048,1.392 -0.048,2.28 0,3.84 0.072,2.808 2.016,4.2 4.584,4.2 z m 10.800018,0 c 2.688,0 4.104,-1.824 4.008,-3.72 l -1.68,-0.12 c -0.168,1.2 -0.888,2.16 -2.328,2.16 -1.512,0 -2.472,-0.888 -2.544,-2.88 -0.048,-1.272 -0.048,-1.992 0,-3.48 0.072,-1.7520002 1.056,-2.6400002 2.448,-2.6400002 1.2,0 2.232,0.6 2.304,2.0400002 l 1.8,-0.1200002 c 0.072,-2.16 -1.512,-3.6 -4.104,-3.6 -2.52,0 -4.392,1.488 -4.488,4.3200002 -0.048,1.392 -0.048,2.28 0,3.84 0.072,2.808 2.016,4.2 4.584,4.2 z m 12.768018,-6.216 c 1.776,-0.384 2.112,-0.6 2.112,-2.184 0,-2.3760002 -1.536,-3.9600002 -4.08,-3.9600002 -2.904,0 -4.464,1.992 -4.584,4.4640002 -0.048,1.128 -0.048,1.872 0,3.576 0.072,2.568 1.752,4.32 4.584,4.32 2.664,0 4.152,-1.824 4.056,-3.72 l -1.68,-0.12 c -0.168,1.2 -0.888,2.16 -2.376,2.16 -1.536,0 -2.568,-1.032 -2.568,-3 v -0.768 c 0,0 2.736,-0.384 4.536,-0.768 z m -4.536,-1.296 c 0,-1.8480002 0.768,-3.1680002 2.568,-3.1680002 1.296,0 2.04,0.864 2.04,2.2320002 0,0.648 -0.168,0.864 -1.224,1.104 -1.656,0.36 -3.384,0.576 -3.384,0.576 z m 17.064003,-1.2 c 0.24,-1.9200002 -1.176,-3.6480002 -3.648,-3.6480002 -2.232,0 -3.96,1.392 -3.96,3.504 0,2.1120002 1.584,2.9520002 3.336,3.5520002 1.68,0.576 2.568,1.056 2.568,2.064 0,1.032 -0.816,1.56 -1.944,1.56 -1.464,0 -2.328,-0.984 -2.472,-2.16 l -1.8,0.12 c 0.024,2.064 1.68,3.72 4.272,3.72 2.448,0 3.984,-1.512 3.984,-3.408 0,-2.28 -1.944,-2.976 -3.672,-3.648 -1.2,-0.456 -2.232,-0.912 -2.232,-2.0160002 0,-0.984 0.816,-1.608 1.848,-1.608 1.2,0 1.92,0.792 1.92,2.0880002 z m 10.632019,0 c 0.24,-1.9200002 -1.176,-3.6480002 -3.648,-3.6480002 -2.232,0 -3.96,1.392 -3.96,3.504 0,2.1120002 1.584,2.9520002 3.336,3.5520002 1.68,0.576 2.568,1.056 2.568,2.064 0,1.032 -0.816,1.56 -1.944,1.56 -1.464,0 -2.328,-0.984 -2.472,-2.16 l -1.8,0.12 c 0.024,2.064 1.68,3.72 4.272,3.72 2.448,0 3.984,-1.512 3.984,-3.408 0,-2.28 -1.944,-2.976 -3.672,-3.648 -1.2,-0.456 -2.232,-0.912 -2.232,-2.0160002 0,-0.984 0.816,-1.608 1.848,-1.608 1.2,0 1.92,0.792 1.92,2.0880002 z m 5.112019,-3.5280002 -2.04,0.84 v 8.7360002 c 0,2.4 1.872,2.784 3.6,2.304 v -1.44 c -1.128,0 -1.56,-0.384 -1.56,-1.584 z m -2.4,-3.888 c 0,0.792 0.576,1.368 1.344,1.368 0.816,0 1.416,-0.576 1.416,-1.368 0,-0.792 -0.6,-1.392 -1.416,-1.392 -0.768,0 -1.344,0.6 -1.344,1.392 z m 8.615988,7.7760002 c 0,-1.0560002 1.296,-2.3280002 2.88,-2.3280002 1.2,0 2.28,0.744 2.328,2.3520002 0.048,1.512 0.072,2.352 0,3.984 -0.072,1.872 -1.272,2.664 -2.856,2.664 -0.84,0 -1.728,-0.144 -2.352,-0.408 z m -2.04,7.2 c 1.2,0.72 3.216,1.152 4.584,1.152 2.496,0 4.632,-1.728 4.704,-4.344 0.048,-1.56 0.048,-2.376 0,-4.008 -0.096,-2.6400002 -1.68,-4.0080002 -3.792,-4.0080002 -1.608,0 -2.856,0.984 -3.432,1.92 h -0.024 V 0.38404083 l -2.04,0.83999997 z m 14.351997,-11.0880002 -2.04,0.84 v 8.7360002 c 0,2.4 1.872,2.784 3.6,2.304 v -1.44 c -1.128,0 -1.56,-0.384 -1.56,-1.584 z m -2.4,-3.888 c 0,0.792 0.576,1.368 1.344,1.368 0.816,0 1.416,-0.576 1.416,-1.368 0,-0.792 -0.6,-1.392 -1.416,-1.392 -0.768,0 -1.344,0.6 -1.344,1.392 z M 98.1996,16.944041 c -1.128,0 -1.56,-0.36 -1.56,-1.56 V 0.38404083 l -2.04,0.83999997 V 16.104041 c 0,2.4 1.992,2.76 3.6,2.28 z m 4.41599,-10.4400002 -2.04,0.84 v 8.7360002 c 0,2.4 1.872,2.784 3.6,2.304 v -1.44 c -1.128,0 -1.56,-0.384 -1.56,-1.584 z m -2.4,-3.888 c 0,0.792 0.576,1.368 1.344,1.368 0.816,0 1.416,-0.576 1.416,-1.368 0,-0.792 -0.6,-1.392 -1.416,-1.392 -0.768,0 -1.344,0.6 -1.344,1.392 z m 8.85599,12.4560002 V 8.1840408 h 3.216 v -1.44 h -3.216 v -3.36 l -2.04,0.84 v 2.52 h -1.68 v 1.44 h 1.68 v 6.9840002 c 0,2.64 1.632,3.576 3.336,3.576 0.6,0 1.632,-0.096 2.28,-0.36 l -0.096,-1.44 c 0,0 -0.72,0.12 -1.488,0.12 -1.032,0 -1.992,-0.24 -1.992,-1.992 z m 11.712,-2.544 c 1.776,-0.384 2.112,-0.6 2.112,-2.184 0,-2.3760002 -1.536,-3.9600002 -4.08,-3.9600002 -2.904,0 -4.464,1.992 -4.584,4.4640002 -0.048,1.128 -0.048,1.872 0,3.576 0.072,2.568 1.752,4.32 4.584,4.32 2.664,0 4.152,-1.824 4.056,-3.72 l -1.68,-0.12 c -0.168,1.2 -0.888,2.16 -2.376,2.16 -1.536,0 -2.568,-1.032 -2.568,-3 v -0.768 c 0,0 2.736,-0.384 4.536,-0.768 z m -4.536,-1.296 c 0,-1.8480002 0.768,-3.1680002 2.568,-3.1680002 1.296,0 2.04,0.864 2.04,2.2320002 0,0.648 -0.168,0.864 -1.224,1.104 -1.656,0.36 -3.384,0.576 -3.384,0.576 z m 3.6,-9.6480002 -2.64,3.48 h 1.872 l 3.168,-3.48 z" />
    <path
       d="m 11.655561,18.384041 h 2.28 L 8.0555607,1.5840408 h -2.4 l 0.192,0.624 L 0.13556074,18.384041 H 2.2955607 l 1.536,-4.56 H 10.143561 Z M 6.4475607,5.9520408 l 0.552,-1.944 0.552,1.896 2.016,6.1200002 h -5.136 z M 20.29555,18.744041 c 2.688,0 4.104,-1.824 4.008,-3.72 l -1.68,-0.12 c -0.168,1.2 -0.888,2.16 -2.328,2.16 -1.512,0 -2.472,-0.888 -2.544,-2.88 -0.048,-1.272 -0.048,-1.992 0,-3.48 0.072,-1.7520002 1.056,-2.6400002 2.448,-2.6400002 1.2,0 2.232,0.6 2.304,2.0400002 l 1.8,-0.1200002 c 0.072,-2.16 -1.512,-3.6 -4.104,-3.6 -2.52,0 -4.392,1.488 -4.488,4.3200002 -0.048,1.392 -0.048,2.28 0,3.84 0.072,2.808 2.016,4.2 4.584,4.2 z m 10.800018,0 c 2.688,0 4.104,-1.824 4.008,-3.72 l -1.68,-0.12 c -0.168,1.2 -0.888,2.16 -2.328,2.16 -1.512,0 -2.472,-0.888 -2.544,-2.88 -0.048,-1.272 -0.048,-1.992 0,-3.48 0.072,-1.7520002 1.056,-2.6400002 2.448,-2.6400002 1.2,0 2.232,0.6 2.304,2.0400002 l 1.8,-0.1200002 c 0.072,-2.16 -1.512,-3.6 -4.104,-3.6 -2.52,0 -4.392,1.488 -4.488,4.3200002 -0.048,1.392 -0.048,2.28 0,3.84 0.072,2.808 2.016,4.2 4.584,4.2 z m 12.768018,-6.216 c 1.776,-0.384 2.112,-0.6 2.112,-2.184 0,-2.3760002 -1.536,-3.9600002 -4.08,-3.9600002 -2.904,0 -4.464,1.992 -4.584,4.4640002 -0.048,1.128 -0.048,1.872 0,3.576 0.072,2.568 1.752,4.32 4.584,4.32 2.664,0 4.152,-1.824 4.056,-3.72 l -1.68,-0.12 c -0.168,1.2 -0.888,2.16 -2.376,2.16 -1.536,0 -2.568,-1.032 -2.568,-3 v -0.768 c 0,0 2.736,-0.384 4.536,-0.768 z m -4.536,-1.296 c 0,-1.8480002 0.768,-3.1680002 2.568,-3.1680002 1.296,0 2.04,0.864 2.04,2.2320002 0,0.648 -0.168,0.864 -1.224,1.104 -1.656,0.36 -3.384,0.576 -3.384,0.576 z m 17.064003,-1.2 c 0.24,-1.9200002 -1.176,-3.6480002 -3.648,-3.6480002 -2.232,0 -3.96,1.392 -3.96,3.504 0,2.1120002 1.584,2.9520002 3.336,3.5520002 1.68,0.576 2.568,1.056 2.568,2.064 0,1.032 -0.816,1.56 -1.944,1.56 -1.464,0 -2.328,-0.984 -2.472,-2.16 l -1.8,0.12 c 0.024,2.064 1.68,3.72 4.272,3.72 2.448,0 3.984,-1.512 3.984,-3.408 0,-2.28 -1.944,-2.976 -3.672,-3.648 -1.2,-0.456 -2.232,-0.912 -2.232,-2.0160002 0,-0.984 0.816,-1.608 1.848,-1.608 1.2,0 1.92,0.792 1.92,2.0880002 z m 10.632019,0 c 0.24,-1.9200002 -1.176,-3.6480002 -3.648,-3.6480002 -2.232,0 -3.96,1.392 -3.96,3.504 0,2.1120002 1.584,2.9520002 3.336,3.5520002 1.68,0.576 2.568,1.056 2.568,2.064 0,1.032 -0.816,1.56 -1.944,1.56 -1.464,0 -2.328,-0.984 -2.472,-2.16 l -1.8,0.12 c 0.024,2.064 1.68,3.72 4.272,3.72 2.448,0 3.984,-1.512 3.984,-3.408 0,-2.28 -1.944,-2.976 -3.672,-3.648 -1.2,-0.456 -2.232,-0.912 -2.232,-2.0160002 0,-0.984 0.816,-1.608 1.848,-1.608 1.2,0 1.92,0.792 1.92,2.0880002 z m 5.112019,-3.5280002 -2.04,0.84 v 8.7360002 c 0,2.4 1.872,2.784 3.6,2.304 v -1.44 c -1.128,0 -1.56,-0.384 -1.56,-1.584 z m -2.4,-3.888 c 0,0.792 0.576,1.368 1.344,1.368 0.816,0 1.416,-0.576 1.416,-1.368 0,-0.792 -0.6,-1.392 -1.416,-1.392 -0.768,0 -1.344,0.6 -1.344,1.392 z m 8.615988,7.7760002 c 0,-1.0560002 1.296,-2.3280002 2.88,-2.3280002 1.2,0 2.28,0.744 2.328,2.3520002 0.048,1.512 0.072,2.352 0,3.984 -0.072,1.872 -1.272,2.664 -2.856,2.664 -0.84,0 -1.728,-0.144 -2.352,-0.408 z m -2.04,7.2 c 1.2,0.72 3.216,1.152 4.584,1.152 2.496,0 4.632,-1.728 4.704,-4.344 0.048,-1.56 0.048,-2.376 0,-4.008 -0.096,-2.6400002 -1.68,-4.0080002 -3.792,-4.0080002 -1.608,0 -2.856,0.984 -3.432,1.92 h -0.024 V 0.38404083 l -2.04,0.83999997 z m 14.351997,-11.0880002 -2.04,0.84 v 8.7360002 c 0,2.4 1.872,2.784 3.6,2.304 v -1.44 c -1.128,0 -1.56,-0.384 -1.56,-1.584 z m -2.4,-3.888 c 0,0.792 0.576,1.368 1.344,1.368 0.816,0 1.416,-0.576 1.416,-1.368 0,-0.792 -0.6,-1.392 -1.416,-1.392 -0.768,0 -1.344,0.6 -1.344,1.392 z M 98.1996,16.944041 c -1.128,0 -1.56,-0.36 -1.56,-1.56 V 0.38404083 l -2.04,0.83999997 V 16.104041 c 0,2.4 1.992,2.76 3.6,2.28 z m 4.41599,-10.4400002 -2.04,0.84 v 8.7360002 c 0,2.4 1.872,2.784 3.6,2.304 v -1.44 c -1.128,0 -1.56,-0.384 -1.56,-1.584 z m -2.4,-3.888 c 0,0.792 0.576,1.368 1.344,1.368 0.816,0 1.416,-0.576 1.416,-1.368 0,-0.792 -0.6,-1.392 -1.416,-1.392 -0.768,0 -1.344,0.6 -1.344,1.392 z m 8.85599,12.4560002 V 8.1840408 h 3.216 v -1.44 h -3.216 v -3.36 l -2.04,0.84 v 2.52 h -1.68 v 1.44 h 1.68 v 6.9840002 c 0,2.64 1.632,3.576 3.336,3.576 0.6,0 1.632,-0.096 2.28,-0.36 l -0.096,-1.44 c 0,0 -0.72,0.12 -1.488,0.12 -1.032,0 -1.992,-0.24 -1.992,-1.992 z m 11.712,-2.544 c 1.776,-0.384 2.112,-0.6 2.112,-2.184 0,-2.3760002 -1.536,-3.9600002 -4.08,-3.9600002 -2.904,0 -4.464,1.992 -4.584,4.4640002 -0.048,1.128 -0.048,1.872 0,3.576 0.072,2.568 1.752,4.32 4.584,4.32 2.664,0 4.152,-1.824 4.056,-3.72 l -1.68,-0.12 c -0.168,1.2 -0.888,2.16 -2.376,2.16 -1.536,0 -2.568,-1.032 -2.568,-3 v -0.768 c 0,0 2.736,-0.384 4.536,-0.768 z m -4.536,-1.296 c 0,-1.8480002 0.768,-3.1680002 2.568,-3.1680002 1.296,0 2.04,0.864 2.04,2.2320002 0,0.648 -0.168,0.864 -1.224,1.104 -1.656,0.36 -3.384,0.576 -3.384,0.576 z m 3.6,-9.6480002 -2.64,3.48 h 1.872 l 3.168,-3.48 z"/>
    <path
       d="m 1.9355607,48.384041 h 8.9760003 v -1.8 H 4.0955607 v -15 h -2.16 z m 12.7439963,-11.88 -2.04,0.84 v 8.736 c 0,2.4 1.872,2.784 3.6,2.304 v -1.44 c -1.128,0 -1.56,-0.384 -1.56,-1.584 z m -2.4,-3.888 c 0,0.792 0.576,1.368 1.344,1.368 0.816,0 1.416,-0.576 1.416,-1.368 0,-0.792 -0.6,-1.392 -1.416,-1.392 -0.768,0 -1.344,0.6 -1.344,1.392 z m 13.775988,7.416 c 0.24,-1.92 -1.176,-3.648 -3.648,-3.648 -2.232,0 -3.96,1.392 -3.96,3.504 0,2.112 1.584,2.952 3.336,3.552 1.68,0.576 2.568,1.056 2.568,2.064 0,1.032 -0.816,1.56 -1.944,1.56 -1.464,0 -2.328,-0.984 -2.472,-2.16 l -1.8,0.12 c 0.024,2.064 1.68,3.72 4.272,3.72 2.448,0 3.984,-1.512 3.984,-3.408 0,-2.28 -1.944,-2.976 -3.672,-3.648 -1.2,-0.456 -2.232,-0.912 -2.232,-2.016 0,-0.984 0.816,-1.608 1.848,-1.608 1.2,0 1.92,0.792 1.92,2.088 z m 12.600019,6.912 c -1.032,0 -1.56,-0.12 -1.56,-1.32 v -5.112 c 0,-2.784 -1.44,-4.128 -3.864,-4.128 -2.328,0 -4.344,1.464 -4.08,3.864 l 1.8,-0.144 c 0,-1.248 0.792,-2.04 2.16,-2.04 1.488,0 1.944,0.936 1.944,2.568 v 1.152 c 0.048,-0.024 -2.4,0.528 -3.888,0.96 -1.8,0.528 -2.4,1.056 -2.4,2.664 0,2.064 1.488,3.336 3.288,3.336 1.584,0 2.544,-0.72 3.192,-1.8 h 0.072 c 0.384,2.136 2.832,1.728 3.336,1.44 z m -6.672,-3.168 c 1.032,-0.336 3.072,-0.816 3.072,-0.816 v 1.536 c 0,1.488 -0.888,2.688 -2.28,2.688 -1.152,0 -1.968,-0.744 -1.968,-2.016 0,-0.72 0.24,-1.08 1.176,-1.392 z m 11.327981,-3.384 c 0,-1.056 1.296,-2.328 2.88,-2.328 1.2,0 2.28,0.744 2.328,2.352 0.048,1.512 0.072,2.352 0,3.984 -0.072,1.872 -1.272,2.664 -2.856,2.664 -0.84,0 -1.728,-0.144 -2.352,-0.408 z m -2.04,7.2 c 1.2,0.72 3.216,1.152 4.584,1.152 2.496,0 4.632,-1.728 4.704,-4.344 0.048,-1.56 0.048,-2.376 0,-4.008 -0.096,-2.64 -1.68,-4.008 -3.792,-4.008 -1.608,0 -2.856,0.984 -3.432,1.92 h -0.024 v -7.92 l -2.04,0.84 z m 14.351997,-11.088 -2.04,0.84 v 8.736 c 0,2.4 1.872,2.784 3.6,2.304 v -1.44 c -1.128,0 -1.56,-0.384 -1.56,-1.584 z m -2.4,-3.888 c 0,0.792 0.576,1.368 1.344,1.368 0.816,0 1.416,-0.576 1.416,-1.368 0,-0.792 -0.6,-1.392 -1.416,-1.392 -0.768,0 -1.344,0.6 -1.344,1.392 z m 9.935988,14.328 c -1.128,0 -1.56,-0.36 -1.56,-1.56 v -15 l -2.04,0.84 v 14.88 c 0,2.4 1.992,2.76 3.6,2.28 z m 4.415993,-10.44 -2.04,0.84 v 8.736 c 0,2.4 1.872,2.784 3.6,2.304 v -1.44 c -1.128,0 -1.56,-0.384 -1.56,-1.584 z m -2.4,-3.888 c 0,0.792 0.576,1.368 1.344,1.368 0.816,0 1.416,-0.576 1.416,-1.368 0,-0.792 -0.6,-1.392 -1.416,-1.392 -0.768,0 -1.344,0.6 -1.344,1.392 z m 8.855988,12.456 v -6.888 h 3.216 v -1.44 h -3.216 v -3.36 l -2.04,0.84 v 2.52 h -1.68 v 1.44 h 1.68 v 6.984 c 0,2.64 1.632,3.576 3.336,3.576 0.6,0 1.632,-0.096 2.28,-0.36 l -0.096,-1.44 c 0,0 -0.72,0.12 -1.488,0.12 -1.032,0 -1.992,-0.24 -1.992,-1.992 z m 11.712004,-2.544 c 1.776,-0.384 2.112,-0.6 2.112,-2.184 0,-2.376 -1.536,-3.96 -4.08,-3.96 -2.904,0 -4.464,1.992 -4.584,4.464 -0.048,1.128 -0.048,1.872 0,3.576 0.072,2.568 1.752,4.32 4.584,4.32 2.664,0 4.152,-1.824 4.056,-3.72 l -1.68,-0.12 c -0.168,1.2 -0.888,2.16 -2.376,2.16 -1.536,0 -2.568,-1.032 -2.568,-3 v -0.768 c 0,0 2.736,-0.384 4.536,-0.768 z m -4.536,-1.296 c 0,-1.848 0.768,-3.168 2.568,-3.168 1.296,0 2.04,0.864 2.04,2.232 0,0.648 -0.168,0.864 -1.224,1.104 -1.656,0.36 -3.384,0.576 -3.384,0.576 z m 3.6,-9.648 -2.64,3.48 h 1.872 l 3.168,-3.48 z"
       id="path9" />
    <path
       d="m 11.655561,78.384041 h 2.28 l -5.8800003,-16.8 h -2.4 l 0.192,0.624 -5.71199996,16.176 H 2.2955607 l 1.536,-4.56 h 6.3120003 z m -5.2080003,-12.432 0.552,-1.944 0.552,1.896 2.016,6.12 h -5.136 z m 11.4959893,0.552 -2.04,0.84 v 8.736 c 0,2.4 1.872,2.784 3.6,2.304 v -1.44 c -1.128,0 -1.56,-0.384 -1.56,-1.584 z m -2.4,-3.888 c 0,0.792 0.576,1.368 1.344,1.368 0.816,0 1.416,-0.576 1.416,-1.368 0,-0.792 -0.6,-1.392 -1.416,-1.392 -0.768,0 -1.344,0.6 -1.344,1.392 z m 13.775987,7.416 c 0.24,-1.92 -1.176,-3.648 -3.648,-3.648 -2.232,0 -3.96,1.392 -3.96,3.504 0,2.112 1.584,2.952 3.336,3.552 1.68,0.576 2.568,1.056 2.568,2.064 0,1.032 -0.816,1.56 -1.944,1.56 -1.464,0 -2.328,-0.984 -2.472,-2.16 l -1.8,0.12 c 0.024,2.064 1.68,3.72 4.272,3.72 2.448,0 3.984,-1.512 3.984,-3.408 0,-2.28 -1.944,-2.976 -3.672,-3.648 -1.2,-0.456 -2.232,-0.912 -2.232,-2.016 0,-0.984 0.816,-1.608 1.848,-1.608 1.2,0 1.92,0.792 1.92,2.088 z m 12.600019,6.912 c -1.032,0 -1.56,-0.12 -1.56,-1.32 v -5.112 c 0,-2.784 -1.44,-4.128 -3.864,-4.128 -2.328,0 -4.344,1.464 -4.08,3.864 l 1.8,-0.144 c 0,-1.248 0.792,-2.04 2.16,-2.04 1.488,0 1.944,0.936 1.944,2.568 v 1.152 c 0.048,-0.024 -2.4,0.528 -3.888,0.96 -1.8,0.528 -2.4,1.056 -2.4,2.664 0,2.064 1.488,3.336 3.288,3.336 1.584,0 2.544,-0.72 3.192,-1.8 h 0.072 c 0.384,2.136 2.832,1.728 3.336,1.44 z m -6.672,-3.168 c 1.032,-0.336 3.072,-0.816 3.072,-0.816 v 1.536 c 0,1.488 -0.888,2.688 -2.28,2.688 -1.152,0 -1.968,-0.744 -1.968,-2.016 0,-0.72 0.24,-1.08 1.176,-1.392 z m 9.527982,4.608 h 2.04 v -7.968 c 0,-0.936 1.104,-2.352 2.808,-2.352 1.44,0 2.208,0.72 2.208,2.496 v 7.824 h 2.04 v -8.064 c 0,-2.448 -1.416,-3.936 -3.576,-3.936 -1.656,0 -2.904,0.792 -3.624,1.968 h -0.024 c -0.216,-1.2 -1.128,-1.728 -2.136,-1.728 -0.432,0 -0.792,0.072 -1.176,0.24 v 1.32 c 0.936,0 1.44,0.144 1.44,1.104 z m 16.704002,0.36 c 2.688,0 4.104,-1.824 4.008,-3.72 l -1.68,-0.12 c -0.168,1.2 -0.888,2.16 -2.328,2.16 -1.512,0 -2.472,-0.888 -2.544,-2.88 -0.048,-1.272 -0.048,-1.992 0,-3.48 0.072,-1.752 1.056,-2.64 2.448,-2.64 1.2,0 2.232,0.6 2.304,2.04 l 1.8,-0.12 c 0.072,-2.16 -1.512,-3.6 -4.104,-3.6 -2.52,0 -4.392,1.488 -4.488,4.32 -0.048,1.392 -0.048,2.28 0,3.84 0.072,2.808 2.016,4.2 4.584,4.2 z m 12.768019,-6.216 c 1.776,-0.384 2.112,-0.6 2.112,-2.184 0,-2.376 -1.536,-3.96 -4.08,-3.96 -2.904,0 -4.464,1.992 -4.584,4.464 -0.048,1.128 -0.048,1.872 0,3.576 0.072,2.568 1.752,4.32 4.584,4.32 2.664,0 4.152,-1.824 4.056,-3.72 l -1.68,-0.12 c -0.168,1.2 -0.888,2.16 -2.376,2.16 -1.536,0 -2.568,-1.032 -2.568,-3 v -0.768 c 0,0 2.736,-0.384 4.536,-0.768 z m -4.536,-1.296 c 0,-1.848 0.768,-3.168 2.568,-3.168 1.296,0 2.04,0.864 2.04,2.232 0,0.648 -0.168,0.864 -1.224,1.104 -1.656,0.36 -3.384,0.576 -3.384,0.576 z"
       />
    </symbol>
</defs>
<use fill="#{color.$absolute-black}" width="123" height="90" x="0" y="0" href="#a" />
<use fill="#fff" width="123" height="90" x="128" y="90" href="#a" />
</svg>
