<?xml version="1.0" encoding="UTF-8" standalone="no"?>
<!-- Created with Inkscape (http://www.inkscape.org/) -->

<svg
   width="44"
   height="18"
   viewBox="0 0 11.641667 4.7624999"
   version="1.1"
   id="svg1"
   xmlns="http://www.w3.org/2000/svg"
   xmlns:svg="http://www.w3.org/2000/svg">
  <defs
     id="defs1" />
  <g
     id="layer1">
    <path
       d="m 3.6561914,4.6869249 c 0.9931626,0 1.6445272,-0.5352774 1.6445272,-1.2575777 0,-0.7674451 -0.4385427,-1.0641046 -1.3156217,-1.4252548 C 3.3917741,1.7590252 3.1015652,1.6364922 3.1015652,1.2495456 c 0,-0.32245606 0.3160066,-0.49658206 0.7932396,-0.50303146 0.4707867,0 0.8964305,0.1805754 1.154389,0.41919256 V 0.41116048 C 4.7331935,0.19833916 4.3655915,0.06935673 3.9592992,0.07580553 c -0.922222,0 -1.5800392,0.48368381 -1.5800392,1.17374007 0,0.767445 0.4256438,1.0705534 1.2898303,1.4317042 0.5933165,0.245066 0.909323,0.4062937 0.909323,0.741648 0,0.3547013 -0.2515121,0.5997679 -0.9222219,0.5997679 -0.5223758,0 -1.0705558,-0.1999224 -1.4639492,-0.5094802 V 4.235487 c 0.2515122,0.2192695 0.741644,0.4514379 1.4639492,0.4514379 z M 9.4346078,0.86259834 V 0.20478796 H 6.2358457 V 4.5837389 H 6.9387931 V 2.5780639 H 8.9251245 V 1.9202535 H 6.9387931 V 0.86259834 Z"
       id="text1"
       style="font-size:189.58px;font-family:Lack;-inkscape-font-specification:Lack;text-align:center;text-anchor:middle;fill:#ffffff;stroke:#ffffff;stroke-width:0.151151"
       aria-label="SF" />
  </g>
</svg>
