<?xml version="1.0" encoding="UTF-8" standalone="no"?>
<!-- Created with Inkscape (http://www.inkscape.org/) -->

<svg
   width="181.41734"
   height="181.41733"
   viewBox="0 0 181.41734 181.41733"
   version="1.1"
   id="svg1"
   inkscape:version="1.3.2 (091e20ef0f, 2023-11-25)"
   sodipodi:docname="webfacilelogosmall.inkscape.svg"
   inkscape:export-filename="webfacilelogosmallsquare.png"
   inkscape:export-xdpi="270.93329"
   inkscape:export-ydpi="270.93329"
   xmlns:inkscape="http://www.inkscape.org/namespaces/inkscape"
   xmlns:sodipodi="http://sodipodi.sourceforge.net/DTD/sodipodi-0.dtd"
   xmlns="http://www.w3.org/2000/svg"
   xmlns:svg="http://www.w3.org/2000/svg">
  <sodipodi:namedview
     id="namedview1"
     pagecolor="#5b5b5b"
     bordercolor="#000000"
     borderopacity="0.25"
     inkscape:showpageshadow="2"
     inkscape:pageopacity="0.0"
     inkscape:pagecheckerboard="0"
     inkscape:deskcolor="#d1d1d1"
     inkscape:document-units="mm"
     inkscape:zoom="0.37683081"
     inkscape:cx="-337.02127"
     inkscape:cy="437.86229"
     inkscape:window-width="1920"
     inkscape:window-height="1008"
     inkscape:window-x="0"
     inkscape:window-y="0"
     inkscape:window-maximized="1"
     inkscape:current-layer="layer1"
     inkscape:export-bgcolor="#ffffff00" />
  <defs
     id="defs1" />
  <g
     inkscape:label="Layer 1"
     inkscape:groupmode="layer"
     id="layer1"
     transform="translate(-129.29134)">
    <g
       id="g3">
      <rect
         style="fill:none;fill-opacity:1;stroke:none;stroke-width:6.54546;stroke-opacity:1"
         id="rect2"
         width="181.41733"
         height="181.41733"
         x="129.29134"
         y="0" />
      <g
         id="g2"
         transform="translate(-26.329456,6.559429)">
        <path
           style="font-size:128px;font-family:Lack;-inkscape-font-specification:Lack;fill:#ffffff;stroke:#000000;stroke-width:6"
           d="m 186.00894,82.205619 18.048,-44.16 18.688,44.16 25.6,-71.424 h -14.464 l -12.16,38.272 -17.536,-40.9600003 -16.128,40.8320003 -13.184,-38.144 h -14.464 z"
           id="text2"
           aria-label="w" />
        <path
           style="font-size:128px;font-family:Lack;-inkscape-font-specification:Lack;fill:#ffffff;stroke:#000000;stroke-width:6"
           d="m 222.36145,158.78752 c 19.328,0 26.496,-6.784 26.496,-6.784 v -12.416 c -0.128,0 -9.984,6.912 -26.24,6.912 -14.976,0 -22.144,-9.216 -23.68,-19.456 h 52.864 v -6.4 c 0,-16 -11.136,-31.871997 -30.336,-31.871997 -20.48,0 -35.712,15.103997 -35.712,34.943997 0,19.072 13.312,35.072 36.608,35.072 z m -22.784,-42.496 c 0.768,-5.12 5.632,-16.256 20.096,-16.256 14.464,0 17.792,11.136 18.304,16.256 z"
           id="text2-9"
           aria-label="e" />
        <path
           style="font-size:128px;font-family:Lack;-inkscape-font-specification:Lack;fill:#ffffff;stroke:#000000;stroke-width:6"
           d="m 297.68997,117.52498 c 20.224,0 34.56,-15.616 34.56,-34.944 0,-19.328 -14.336,-35.072 -34.56,-35.072 -9.6,0 -17.664,3.712 -22.272,8.32 v -29.44 l -13.696,2.304 v 86.912 h 13.952 l -0.128,-6.784 c 4.352,4.48 11.392,8.704 22.144,8.704 z m -1.024,-12.288 c -12.288,0 -22.016,-8.32 -22.016,-22.784 0,-14.336 9.728,-22.656 22.016,-22.656 12.416,0 22.144,10.112 22.144,22.656 0,12.544 -9.728,22.784 -22.144,22.784 z"
           id="text2-9-9"
           aria-label="b" />
      </g>
    </g>
  </g>
</svg>
